<svg width="137" height="60" viewBox="0 0 137 60" fill="none" xmlns="http://www.w3.org/2000/svg">
<g clip-path="url(#clip0_65_445)">
<path d="M88.6418 47.5999C88.6418 47.5999 88.6617 47.6113 88.6702 47.6028L95.7028 42.3404C95.7028 42.3404 95.7113 42.3319 95.7113 42.3262C95.7113 42.3205 95.7113 42.3148 95.7056 42.312C95.6346 42.2239 95.5806 42.1472 95.5124 42.0562C95.5067 42.0477 95.4925 42.0449 95.484 42.0534L88.4429 47.2987C88.4429 47.2987 88.4344 47.3072 88.4344 47.3129C88.4344 47.3186 88.4344 47.3243 88.4372 47.3271L88.6389 47.5971L88.6418 47.5999ZM97.0894 43.7924C97.0894 43.7924 97.0695 43.7838 97.061 43.7924L90.9973 50.1998C90.9973 50.1998 90.9888 50.2197 90.9973 50.2282L91.2417 50.4612C91.2417 50.4612 91.2502 50.4669 91.2559 50.4669C91.2616 50.4669 91.2673 50.4669 91.2701 50.4612L97.3366 44.0481C97.3366 44.0481 97.3423 44.0396 97.3423 44.0339C97.3423 44.0282 97.3423 44.0225 97.3366 44.0197C97.2514 43.9458 97.169 43.8691 97.0866 43.7924H97.0894ZM95.9954 24.4336C95.9954 24.4336 96.004 24.4393 96.0097 24.4393C96.0153 24.4393 96.021 24.4364 96.0239 24.4336C96.1631 24.2716 96.291 24.1239 96.4359 23.9704C96.4387 23.9676 96.4416 23.9619 96.4416 23.9562C96.4416 23.9505 96.4416 23.9449 96.4359 23.942L83.9477 12.3262C83.9477 12.3262 83.9392 12.3205 83.9335 12.3205C83.7375 12.3262 83.5471 12.3376 83.3595 12.3489C83.2572 12.3574 83.1549 12.3688 83.0555 12.3802C83.047 12.3802 83.0413 12.3859 83.0384 12.3944C83.0384 12.4029 83.0385 12.4114 83.0441 12.4171L95.9954 24.4364V24.4336ZM96.72 23.6494L91.0684 17.7477C91.0684 17.7477 91.0485 17.7391 91.04 17.7477L90.7956 17.9807C90.7956 17.9807 90.7899 17.9892 90.7899 17.9949C90.7899 18.0006 90.7899 18.0062 90.7956 18.0091L96.47 23.9079C96.47 23.9079 96.4785 23.9136 96.4842 23.9136C96.4899 23.9136 96.4955 23.9136 96.4984 23.9079C96.5751 23.8255 96.6405 23.7602 96.72 23.6806C96.7285 23.6721 96.7285 23.6607 96.72 23.6522V23.6494ZM96.2625 42.9598C96.2625 42.9598 96.2427 42.9513 96.2341 42.9598L89.659 48.8047C89.659 48.8047 89.6533 48.8132 89.6533 48.8189C89.6533 48.8246 89.6533 48.8303 89.659 48.8331L89.8835 49.086C89.8835 49.086 89.9034 49.0945 89.9119 49.086L96.4955 43.2326C96.4955 43.2326 96.5012 43.2241 96.5012 43.2184C96.5012 43.2127 96.5012 43.207 96.4955 43.2042C96.4188 43.1218 96.3393 43.0422 96.2625 42.9598ZM98.6749 22.0269C98.6749 22.0269 98.6835 22.0354 98.6891 22.0354C98.6948 22.0354 98.7005 22.0354 98.7062 22.0326C98.8824 21.9132 99.0614 21.7967 99.2404 21.6831C99.2461 21.6802 99.2489 21.6745 99.2489 21.6689C99.2489 21.6632 99.2489 21.6575 99.2489 21.6547L93.0119 11.7863C93.0119 11.7863 92.9949 11.7749 92.9864 11.7778C92.7875 11.8573 92.58 11.9284 92.3698 11.9937C92.3641 11.9937 92.3584 11.9994 92.3556 12.0051C92.3556 12.0108 92.3556 12.0165 92.3556 12.0222L98.6749 22.024V22.0269ZM97.3707 23.0697C97.4559 22.9958 97.5412 22.9219 97.6264 22.8481C97.635 22.8395 97.635 22.8282 97.6264 22.8196L92.5232 16.4747C92.5232 16.4747 92.5147 16.469 92.509 16.4662C92.5033 16.4662 92.4976 16.4662 92.4948 16.4719L92.2305 16.685C92.2305 16.685 92.2192 16.7049 92.2277 16.7134L97.3366 23.0669C97.3366 23.0669 97.3451 23.0725 97.3508 23.0754C97.3565 23.0754 97.3622 23.0754 97.365 23.0697H97.3707ZM97.7117 22.7486C97.7117 22.7486 97.7202 22.7571 97.7259 22.7571C97.7316 22.7571 97.7373 22.7571 97.7401 22.7515C97.9049 22.6151 98.0725 22.4844 98.243 22.3593C98.2487 22.3565 98.2516 22.3508 98.2516 22.3451C98.2516 22.3394 98.2516 22.3338 98.2487 22.3309L90.7388 12.4512C90.7388 12.4512 90.7274 12.4427 90.7189 12.4427C90.483 12.4825 90.2358 12.5109 89.9858 12.5336C89.9773 12.5336 89.9716 12.5393 89.9687 12.545C89.9659 12.5507 89.9687 12.5592 89.9687 12.5649L97.7088 22.7486H97.7117ZM94.0633 15.3324L93.782 15.52C93.782 15.52 93.7706 15.5399 93.7763 15.5484L98.2999 22.2883C98.2999 22.2883 98.3084 22.2968 98.3141 22.2968C98.3198 22.2968 98.3254 22.2968 98.3283 22.294C98.4192 22.2286 98.513 22.1633 98.6039 22.1008C98.6124 22.0951 98.6153 22.0809 98.6096 22.0723L94.0888 15.3381C94.0888 15.3381 94.0803 15.3296 94.0746 15.3296C94.0689 15.3296 94.0633 15.3296 94.0604 15.3324H94.0633ZM97.9788 44.551C97.9788 44.551 97.956 44.5454 97.9504 44.5539L92.4522 51.4756C92.4522 51.4756 92.4465 51.4984 92.455 51.5041L92.7193 51.7143C92.7193 51.7143 92.7278 51.72 92.7335 51.72C92.7391 51.72 92.7448 51.7172 92.7477 51.7115L98.2487 44.7897C98.2487 44.7897 98.2544 44.7812 98.2544 44.7755C98.2544 44.7698 98.2516 44.7641 98.2459 44.7613C98.155 44.6931 98.0669 44.6221 97.9788 44.5539V44.551ZM92.9835 36.7456L87.616 37.8822C87.616 37.8822 87.599 37.8935 87.599 37.9021C87.599 38.0186 87.599 38.1322 87.6018 38.2459C87.6018 38.2515 87.6047 38.2572 87.6103 38.2629C87.616 38.2658 87.6217 38.2686 87.6274 38.2658L90.9945 37.5526C90.9945 37.5526 91.0172 37.5582 91.0172 37.5668C91.0172 37.5753 91.0144 37.5895 91.003 37.5923L87.6189 38.5186C87.6189 38.5186 87.6047 38.53 87.6047 38.5385C87.6047 38.763 87.6018 38.9846 87.5961 39.2034C87.5961 39.2091 87.5961 39.2148 87.6047 39.2205C87.6103 39.2233 87.616 39.2262 87.6217 39.2233L93.2307 37.6861C93.2307 37.6861 93.2392 37.6804 93.2421 37.6776C93.2449 37.6747 93.2449 37.6662 93.2421 37.6605C93.1512 37.3622 93.0716 37.061 93.0006 36.7598C93.0006 36.7484 92.9864 36.7427 92.9778 36.7456H92.9835ZM92.759 35.5749L87.5535 36.2142C87.5535 36.2142 87.5336 36.2256 87.5365 36.237C87.5421 36.3506 87.5535 36.4643 87.5592 36.5751C87.5592 36.5808 87.562 36.5865 87.5677 36.5893C87.5734 36.5921 87.5791 36.595 87.5848 36.595L90.5456 36.2313C90.5456 36.2313 90.5654 36.237 90.5683 36.2483C90.5711 36.2597 90.5626 36.2682 90.5512 36.2711L87.5876 36.8138C87.5876 36.8138 87.5706 36.8251 87.5706 36.8337C87.5791 37.0496 87.5876 37.2656 87.5933 37.4787C87.5933 37.4844 87.5961 37.49 87.6018 37.4929C87.6075 37.4957 87.6132 37.4986 87.6189 37.4957L92.9324 36.5211C92.9324 36.5211 92.9437 36.5183 92.9466 36.5126C92.9494 36.5069 92.9494 36.5012 92.9494 36.4955C92.8841 36.1943 92.8301 35.8932 92.7846 35.5863C92.7846 35.5749 92.7732 35.5664 92.7619 35.5692L92.759 35.5749ZM92.634 34.3872L87.4228 34.5747C87.4228 34.5747 87.4114 34.5747 87.4086 34.5804C87.4058 34.5832 87.4029 34.5889 87.4029 34.5946C87.4143 34.7083 87.4228 34.8191 87.4342 34.9327C87.4342 34.9441 87.4455 34.9526 87.4541 34.9526L90.2557 34.8532C90.2557 34.8532 90.2756 34.8617 90.2756 34.8731C90.2756 34.8844 90.2671 34.893 90.2586 34.8958L87.474 35.1601C87.474 35.1601 87.4541 35.1714 87.4569 35.1828C87.4768 35.3959 87.4938 35.609 87.508 35.8193C87.508 35.825 87.5109 35.8306 87.5166 35.8335C87.5194 35.8363 87.5251 35.8392 87.5308 35.8392L92.7278 35.3447C92.7278 35.3447 92.7392 35.3419 92.742 35.3362C92.7448 35.3305 92.7477 35.3277 92.7477 35.322C92.7079 35.018 92.6766 34.7168 92.6567 34.4099C92.6567 34.3985 92.6454 34.39 92.6369 34.39L92.634 34.3872ZM86.8005 47.1765C86.7579 47.472 86.7153 47.7619 86.6727 48.046C86.6727 48.0545 86.6727 48.0631 86.6812 48.0659C86.6897 48.0687 86.6982 48.0687 86.7039 48.0659L95.4016 41.9483C95.4016 41.9483 95.4101 41.9397 95.4101 41.9341C95.4101 41.9284 95.4101 41.9227 95.4073 41.9199C95.2055 41.6499 95.018 41.3743 94.839 41.093C94.8333 41.0845 94.8219 41.0816 94.8106 41.0873L87.3631 45.6933C87.3631 45.6933 87.3518 45.7132 87.3575 45.7217L87.5365 46.0087C87.5365 46.0087 87.545 46.0172 87.5478 46.0172C87.5535 46.0172 87.5592 46.0172 87.562 46.0172L94.248 41.8801C94.248 41.8801 94.2707 41.8772 94.2764 41.8858C94.2821 41.8943 94.2792 41.9085 94.2707 41.9142L86.8062 47.1623C86.8062 47.1623 86.7977 47.1709 86.7977 47.1765H86.8005ZM86.8403 31.1849C86.8403 31.1849 86.8261 31.1849 86.8233 31.1906C86.8176 31.1962 86.8176 31.2019 86.8176 31.2104C86.846 31.3269 86.8744 31.4434 86.9028 31.5628C86.9028 31.5713 86.9113 31.577 86.9199 31.5798L90.2245 32.0345C90.2245 32.0345 90.2444 32.0458 90.2415 32.0572C90.2415 32.0686 90.2302 32.0771 90.2188 32.0742L86.9881 31.8214C86.9881 31.8214 86.9767 31.8214 86.971 31.827C86.9682 31.8327 86.9653 31.8384 86.9653 31.8441C87.0108 32.0572 87.0563 32.276 87.096 32.4948C87.096 32.5033 87.1046 32.5118 87.1159 32.5118L92.6227 32.9409C92.6227 32.9409 92.634 32.9409 92.6369 32.9352C92.6397 32.9295 92.6425 32.9267 92.6425 32.921C92.6568 32.617 92.6823 32.3129 92.7164 32.0117C92.7164 32.0004 92.7107 31.9918 92.6994 31.989L86.8403 31.182V31.1849ZM95.717 14.3322L95.4215 14.4971C95.4215 14.4971 95.4073 14.5141 95.413 14.5255L99.3228 21.6064C99.3228 21.6064 99.3313 21.6149 99.3341 21.6149C99.3398 21.6149 99.3455 21.6149 99.3512 21.6149C99.4478 21.5552 99.5444 21.5012 99.6439 21.4444C99.6524 21.4387 99.6581 21.4273 99.6524 21.416L95.7454 14.3408C95.7454 14.3408 95.7397 14.3322 95.734 14.3322C95.7284 14.3322 95.7227 14.3322 95.7198 14.3322H95.717ZM87.0619 45.3722C87.0619 45.3722 87.0619 45.3864 87.0705 45.3921C87.0761 45.3978 87.0847 45.3978 87.0932 45.3921L94.7282 40.9538C94.7282 40.9538 94.7367 40.9452 94.7367 40.9424C94.7367 40.9367 94.7367 40.931 94.7367 40.9254C94.5634 40.6469 94.4014 40.3627 94.248 40.0729C94.2423 40.0644 94.2309 40.0587 94.2195 40.0644L87.3063 43.5565C87.3063 43.5565 87.2949 43.5651 87.2949 43.5736C87.2807 43.7071 87.2637 43.8435 87.2495 43.9771C87.2495 43.9856 87.2495 43.9913 87.258 43.997C87.2665 44.0026 87.2722 44.0026 87.2779 43.997L93.2506 40.9793C93.2506 40.9793 93.2733 40.9793 93.279 40.9879C93.2847 40.9964 93.279 41.0106 93.2705 41.0163L87.1813 44.5567C87.1813 44.5567 87.1728 44.5652 87.1699 44.5709C87.133 44.8437 87.0989 45.1108 87.0619 45.3722ZM95.2481 25.377C95.2481 25.377 95.2595 25.3826 95.2624 25.3798C95.268 25.3798 95.2737 25.377 95.2766 25.3713C95.4726 25.0985 95.6772 24.8342 95.8903 24.5813C95.8988 24.5728 95.896 24.5615 95.8903 24.5529L89.7215 19.1343C89.7215 19.1343 89.6988 19.1286 89.6931 19.1343L89.4686 19.3872C89.4686 19.3872 89.463 19.3957 89.463 19.4014C89.463 19.4071 89.463 19.4128 89.4686 19.4156L94.9129 24.1978C94.9129 24.1978 94.9214 24.2176 94.9129 24.2262C94.9072 24.2347 94.893 24.2347 94.8844 24.229L80.5636 13.0735C80.5636 13.0735 80.5493 13.0678 80.5408 13.0735C80.3135 13.1957 80.126 13.3235 79.9754 13.4486C79.9697 13.4514 79.9668 13.4571 79.9668 13.4656C79.9668 13.4713 79.9697 13.477 79.9754 13.4827L95.2453 25.377H95.2481ZM93.2989 37.8878L87.6018 39.6183C87.6018 39.6183 87.5876 39.6297 87.5876 39.6382C87.5848 39.7604 87.5791 39.8769 87.5734 39.9962C87.5734 40.0019 87.5734 40.0104 87.5819 40.0132C87.5905 40.0161 87.5933 40.0189 87.599 40.0161L91.6026 38.7999C91.6026 38.7999 91.6253 38.7999 91.6281 38.8142C91.631 38.8284 91.6281 38.8369 91.6168 38.8397L87.5734 40.3343C87.5734 40.3343 87.5592 40.3457 87.5592 40.3514C87.5478 40.5872 87.5365 40.8174 87.5194 41.0475C87.5194 41.0532 87.5194 41.0617 87.5279 41.0646C87.5336 41.0674 87.5421 41.0703 87.5478 41.0646L93.6371 38.817C93.6371 38.817 93.6456 38.8113 93.6484 38.8056C93.6484 38.7999 93.6484 38.7943 93.6484 38.7886C93.5291 38.4959 93.4211 38.2004 93.3245 37.8992C93.3216 37.8878 93.3103 37.8822 93.2989 37.885V37.8878ZM92.6141 33.1909L87.1983 32.9182C87.1983 32.9182 87.187 32.9182 87.1813 32.9238C87.1756 32.9295 87.1756 32.9352 87.1756 32.9409C87.1955 33.0545 87.2125 33.1682 87.2324 33.2819C87.2324 33.2904 87.241 33.2989 87.2523 33.2989L90.1506 33.4467C90.1506 33.4467 90.1705 33.4552 90.1705 33.4666C90.1705 33.4779 90.162 33.4864 90.1506 33.4864L87.2921 33.5092C87.2921 33.5092 87.2807 33.5092 87.2779 33.5177C87.275 33.5234 87.2722 33.5291 87.2722 33.5347C87.3035 33.745 87.3319 33.9581 87.3575 34.1712C87.3575 34.1826 87.3688 34.1883 87.3773 34.1883L92.6255 34.1428C92.6255 34.1428 92.6369 34.1428 92.6397 34.1371C92.6425 34.1343 92.6454 34.1286 92.6454 34.1229C92.634 33.8189 92.6283 33.5149 92.6369 33.2108C92.6369 33.1995 92.6283 33.1909 92.617 33.1909H92.6141ZM93.7365 39.0102C93.7365 39.0102 93.7194 38.996 93.7109 38.9988L87.5052 41.488C87.5052 41.488 87.4938 41.4965 87.491 41.505C87.4825 41.6329 87.4711 41.7579 87.4597 41.8829C87.4597 41.8886 87.4597 41.8971 87.4683 41.9C87.4739 41.9028 87.4825 41.9057 87.4882 41.9L92.3612 39.9451C92.3612 39.9451 92.384 39.945 92.3868 39.9564C92.3925 39.9678 92.3868 39.9791 92.3754 39.982L87.4313 42.3091C87.4313 42.3091 87.42 42.3177 87.42 42.3262C87.3972 42.5762 87.3717 42.8234 87.3461 43.0678C87.3461 43.0763 87.3461 43.082 87.3546 43.0877C87.3603 43.0934 87.3688 43.0934 87.3745 43.0877L94.1315 39.9053C94.1315 39.9053 94.14 39.8996 94.1428 39.8939C94.1428 39.8882 94.1428 39.8825 94.1428 39.8769C93.9979 39.5899 93.8587 39.3 93.7337 39.0045L93.7365 39.0102ZM96.8109 23.5556C96.8109 23.5556 96.8195 23.5613 96.8252 23.5613C96.8308 23.5613 96.8365 23.5613 96.8394 23.5556C96.9928 23.4078 97.1491 23.2629 97.3054 23.1208C97.3082 23.118 97.311 23.1123 97.311 23.1066C97.311 23.101 97.311 23.0953 97.3054 23.0924L87.6785 12.4683C87.6785 12.4683 87.67 12.4626 87.6643 12.4626C87.5563 12.4541 87.4484 12.4455 87.3432 12.4342C87.1443 12.4228 86.9426 12.4057 86.738 12.3887C86.7295 12.3887 86.721 12.3915 86.7181 12.4001C86.7153 12.4086 86.7181 12.4171 86.721 12.4228L96.8081 23.5527L96.8109 23.5556ZM116.443 23.6153C116.443 23.6153 116.443 23.6266 116.448 23.6295C116.599 23.7801 116.747 23.9335 116.891 24.0898C116.9 24.0983 116.911 24.0983 116.92 24.0898L122.915 18.7848C122.915 18.7848 122.921 18.7763 122.921 18.7706C122.921 18.7649 122.921 18.7592 122.915 18.7564L122.787 18.62C122.787 18.62 122.782 18.6115 122.782 18.6058C122.782 18.6001 122.782 18.5944 122.787 18.5916L123.006 18.387C123.006 18.387 123.009 18.3813 123.006 18.3785C123.006 18.3756 123.006 18.3728 123.001 18.3728C122.785 18.2677 122.574 18.1654 122.373 18.0659C122.364 18.0631 122.356 18.0659 122.35 18.0688L116.445 23.5982C116.445 23.5982 116.44 23.6067 116.44 23.6124L116.443 23.6153ZM117.267 24.5075C117.267 24.5075 117.267 24.5188 117.272 24.5217C117.411 24.6836 117.545 24.8513 117.673 25.0189C117.679 25.0275 117.693 25.0303 117.701 25.0218L124.12 20.197C124.12 20.197 124.129 20.1885 124.129 20.1828C124.129 20.1771 124.129 20.1714 124.123 20.1686L124.038 20.0663C124.038 20.0663 124.032 20.0578 124.032 20.0521C124.032 20.0464 124.035 20.0407 124.041 20.0379L124.992 19.2906C124.992 19.2906 125.001 19.2792 125.001 19.2707C125.001 19.2622 124.995 19.2565 124.99 19.2536C124.768 19.1627 124.541 19.0689 124.316 18.9723C124.31 18.9695 124.302 18.9723 124.296 18.9723L117.278 24.4933C117.278 24.4933 117.269 24.5018 117.269 24.5075H117.267ZM118.011 25.465C118.011 25.465 118.011 25.4764 118.014 25.4792C118.136 25.6526 118.255 25.8287 118.372 26.0106C118.378 26.0191 118.392 26.022 118.4 26.0163L125.197 21.7058C125.197 21.7058 125.206 21.6973 125.206 21.6916C125.206 21.6859 125.206 21.6802 125.203 21.6774L125.157 21.612C125.157 21.612 125.154 21.6007 125.154 21.5978C125.154 21.5921 125.157 21.5865 125.163 21.5836L127.317 20.1714C127.317 20.1714 127.328 20.1601 127.325 20.1515C127.322 20.143 127.32 20.1373 127.311 20.1345C127.064 20.0464 126.817 19.9555 126.564 19.8617C126.558 19.8617 126.55 19.8617 126.547 19.8617L118.02 25.448C118.02 25.448 118.011 25.4565 118.011 25.4622V25.465ZM114.579 22.0695C114.579 22.0695 114.581 22.0809 114.587 22.0837C114.763 22.2059 114.937 22.3309 115.104 22.4588C115.11 22.4616 115.113 22.4645 115.118 22.4616C115.124 22.4616 115.13 22.4588 115.133 22.4531L119.56 16.5742C119.56 16.5742 119.565 16.5628 119.562 16.5571C119.562 16.5514 119.557 16.5457 119.554 16.5429C119.281 16.3809 119.028 16.219 118.79 16.0598C118.781 16.0542 118.767 16.057 118.761 16.0655L114.581 22.0496C114.581 22.0496 114.576 22.061 114.579 22.0638V22.0695ZM115.547 22.7998C115.547 22.7998 115.55 22.8111 115.556 22.814C115.721 22.9504 115.88 23.0896 116.039 23.2345C116.042 23.2373 116.048 23.2402 116.053 23.2402C116.059 23.2402 116.065 23.2402 116.067 23.2345L121.213 17.5033C121.213 17.5033 121.219 17.4919 121.219 17.4863C121.219 17.4806 121.213 17.4749 121.208 17.472C120.966 17.347 120.733 17.222 120.514 17.0998C120.506 17.0941 120.494 17.0998 120.489 17.1055L115.553 22.7884C115.553 22.7884 115.547 22.7969 115.547 22.8026V22.7998ZM99.7064 21.3989C99.7064 21.3989 99.7177 21.3989 99.7234 21.3989C99.9081 21.2938 100.096 21.1943 100.286 21.0977C100.292 21.0977 100.295 21.0921 100.297 21.0864C100.297 21.0807 100.297 21.075 100.297 21.0693L94.9242 10.681C94.9242 10.681 94.9157 10.6725 94.91 10.6696C94.9043 10.6696 94.8986 10.6696 94.893 10.6725C94.7253 10.806 94.552 10.9339 94.373 11.0532C94.3645 11.0589 94.3616 11.0703 94.3673 11.0788L99.6979 21.3876C99.6979 21.3876 99.7035 21.3961 99.7092 21.3989H99.7064ZM120.361 31.0144C120.361 31.0144 120.355 31.0257 120.358 31.0286C120.398 31.2389 120.429 31.4463 120.46 31.6594C120.46 31.6651 120.463 31.6708 120.469 31.6736C120.475 31.6764 120.477 31.6793 120.483 31.6764L136.401 29.2982C136.401 29.2982 136.421 29.2868 136.418 29.2754C136.392 29.0566 136.367 28.8464 136.335 28.6418C136.335 28.6304 136.324 28.6219 136.313 28.6247L120.375 31.0059C120.375 31.0059 120.364 31.0087 120.361 31.0144ZM113.556 21.4217C113.556 21.4217 113.561 21.4302 113.564 21.433C113.749 21.5382 113.934 21.649 114.113 21.7626C114.118 21.7655 114.124 21.7655 114.127 21.7626C114.132 21.7626 114.135 21.7569 114.141 21.7541L118.028 15.5427C118.028 15.5427 118.031 15.5228 118.022 15.5143C117.792 15.341 117.579 15.1676 117.377 14.9943C117.372 14.9915 117.366 14.9886 117.36 14.9886C117.355 14.9886 117.349 14.9915 117.346 14.9971L117.286 15.0881L113.558 21.3989C113.558 21.3989 113.556 21.4103 113.558 21.4131L113.556 21.4217ZM119.713 28.673C119.713 28.673 119.713 28.6844 119.713 28.6901C119.787 28.889 119.858 29.0907 119.92 29.2925C119.92 29.2981 119.926 29.301 119.932 29.3038C119.937 29.3038 119.943 29.3067 119.949 29.3038L134.736 24.3881C134.736 24.3881 134.747 24.3824 134.75 24.3739C134.753 24.3654 134.75 24.3597 134.747 24.3569C134.611 24.1693 134.469 23.9932 134.318 23.8227C134.312 23.817 134.304 23.8142 134.295 23.817L119.727 28.6617C119.727 28.6617 119.719 28.6673 119.716 28.673H119.713ZM119.241 27.5535C119.241 27.5535 119.241 27.5649 119.241 27.5705C119.332 27.7638 119.417 27.957 119.5 28.153C119.5 28.1587 119.506 28.1616 119.511 28.1644C119.517 28.1673 119.523 28.1644 119.528 28.1644L132.69 22.4872C132.69 22.4872 132.701 22.4787 132.701 22.4702C132.701 22.4616 132.698 22.4559 132.693 22.4503C132.474 22.3082 132.247 22.1746 132.014 22.0468C132.008 22.0439 132.002 22.0439 131.997 22.0468L119.256 27.545C119.256 27.545 119.247 27.5507 119.244 27.5563L119.241 27.5535ZM118.673 26.4823C118.673 26.4823 118.673 26.4936 118.673 26.4993C118.781 26.684 118.883 26.8687 118.983 27.0591C118.983 27.0648 118.988 27.0676 118.994 27.0705C119 27.0733 119.005 27.0705 119.011 27.0705L129.991 21.1631C129.991 21.1631 130.002 21.1517 130.002 21.1432C130.002 21.1347 129.996 21.129 129.988 21.1261C129.732 21.0239 129.468 20.9244 129.201 20.825C129.195 20.825 129.189 20.825 129.184 20.825L118.682 26.4766C118.682 26.4766 118.673 26.4851 118.67 26.488L118.673 26.4823ZM120.085 29.8295C120.085 29.8295 120.082 29.8409 120.085 29.8465C120.142 30.0511 120.193 30.2586 120.242 30.466C120.242 30.4717 120.247 30.4745 120.25 30.4802C120.256 30.483 120.261 30.483 120.264 30.4802L135.887 26.7465C135.887 26.7465 135.898 26.7408 135.901 26.738C135.901 26.7323 135.904 26.7266 135.901 26.721C135.835 26.5107 135.764 26.3089 135.688 26.1129C135.685 26.1044 135.673 26.0987 135.665 26.1015L120.099 29.821C120.099 29.821 120.088 29.8267 120.085 29.8295ZM102.372 17.1027C102.372 17.1027 102.357 17.1027 102.355 17.0941L101.138 12.2438C101.138 12.2438 101.124 12.2267 101.113 12.2296L100.783 12.312C100.783 12.312 100.775 12.3177 100.772 12.3205C100.772 12.3262 100.769 12.3319 100.772 12.3347L102.721 20.1089C102.721 20.1089 102.727 20.1203 102.73 20.1203C102.733 20.1203 102.741 20.1231 102.747 20.1203C103.054 20.0322 103.366 19.9498 103.679 19.8844C103.684 19.8844 103.69 19.8788 103.693 19.8759C103.696 19.8702 103.696 19.8645 103.693 19.8617L99.7149 1.92081C99.7149 1.92081 99.7064 1.9066 99.6979 1.90376C99.6893 1.90376 99.6808 1.90376 99.678 1.91228C99.5132 2.16801 99.354 2.44647 99.2063 2.75051C99.2063 2.75335 99.2063 2.75903 99.2063 2.76471L102.38 17.0856C102.38 17.0856 102.377 17.0998 102.369 17.1027H102.372ZM112.464 20.8562C112.464 20.8562 112.47 20.8647 112.476 20.8676C112.49 20.8733 112.504 20.8789 112.518 20.8875C112.703 20.9727 112.885 21.0665 113.064 21.1602C113.07 21.1602 113.075 21.1631 113.081 21.1602C113.087 21.1574 113.09 21.1546 113.092 21.1489L116.602 14.2839C116.602 14.2839 116.602 14.2669 116.599 14.2612C116.448 14.1021 116.303 13.9401 116.161 13.7725L115.928 13.6617C115.928 13.6617 115.905 13.6617 115.9 13.6702L112.467 20.8392C112.467 20.8392 112.467 20.8505 112.467 20.8562H112.464ZM103.628 15.4575C103.628 15.4575 103.613 15.4546 103.613 15.4461L103.039 11.8659C103.039 11.8659 103.028 11.846 103.017 11.8488L102.681 11.9028C102.681 11.9028 102.67 11.9057 102.667 11.9113C102.664 11.917 102.661 11.9199 102.664 11.9255L103.932 19.8162C103.932 19.8162 103.934 19.8276 103.94 19.8304C103.946 19.8333 103.952 19.8361 103.954 19.8333C104.256 19.7736 104.562 19.7253 104.866 19.6884C104.872 19.6884 104.878 19.6855 104.881 19.6799C104.883 19.6742 104.886 19.6713 104.883 19.6656L102.281 0.0170355C102.281 0.0170355 102.278 0.00566967 102.272 0.00282823C102.267 -1.32197e-05 102.261 -0.00285467 102.255 -1.32197e-05C102.173 0.0170355 101.684 0.178998 101.633 0.210254C101.624 0.215937 101.622 0.22162 101.622 0.230144L103.639 15.4433C103.639 15.4433 103.636 15.4575 103.628 15.4575ZM97.4531 13.477L97.1434 13.6134C97.1434 13.6134 97.1349 13.619 97.132 13.6247C97.132 13.6304 97.132 13.6361 97.132 13.6418L100.408 21.0096C100.408 21.0096 100.414 21.0182 100.42 21.021C100.425 21.0239 100.431 21.021 100.437 21.021C100.539 20.9699 100.624 20.9301 100.726 20.8818C100.738 20.8761 100.741 20.8647 100.738 20.8562L97.4815 13.4912C97.4815 13.4912 97.4645 13.477 97.456 13.4798L97.4531 13.477ZM100.789 20.8448C100.789 20.8448 100.8 20.8448 100.806 20.8448C100.999 20.7568 101.184 20.6772 101.38 20.5976C101.386 20.5976 101.389 20.592 101.391 20.5863C101.394 20.5806 101.391 20.5749 101.391 20.5692L96.5723 8.87667C96.5723 8.87667 96.5637 8.8653 96.5552 8.8653C96.5467 8.8653 96.541 8.8653 96.5353 8.87383C96.3932 9.08125 96.2455 9.28015 96.0921 9.47053C96.0864 9.47621 96.0864 9.48474 96.0892 9.49042L100.778 20.8335C100.778 20.8335 100.783 20.842 100.789 20.8448ZM101.366 18.7876C101.366 18.7876 101.352 18.7876 101.349 18.7791L99.283 12.7893C99.283 12.7893 99.2688 12.7723 99.2574 12.778L98.9363 12.8888C98.9363 12.8888 98.9278 12.8945 98.925 12.9002C98.925 12.9058 98.925 12.9115 98.925 12.9144L101.545 20.5124C101.545 20.5124 101.55 20.5209 101.556 20.5238C101.562 20.5238 101.568 20.5238 101.573 20.5238C101.883 20.4044 102.198 20.2936 102.517 20.1942C102.522 20.1942 102.525 20.1885 102.528 20.1828C102.528 20.1771 102.531 20.1714 102.528 20.1657L98.0669 5.96703C98.0669 5.96703 98.0555 5.95282 98.047 5.95282C98.0384 5.95282 98.0299 5.9585 98.0271 5.96703C97.9049 6.28243 97.777 6.58646 97.6435 6.87629C97.6435 6.88197 97.6435 6.88481 97.6435 6.8905L101.374 18.7649C101.374 18.7649 101.374 18.7791 101.366 18.782V18.7876ZM107.66 19.6117C107.66 19.6117 107.668 19.6173 107.674 19.6202C107.941 19.6401 108.211 19.6656 108.478 19.7026C108.484 19.7026 108.489 19.7026 108.492 19.6997C108.498 19.6969 108.501 19.6912 108.501 19.6855L110.342 5.28792C110.342 5.28792 110.342 5.27655 110.339 5.27371C110.154 5.02935 109.97 4.79351 109.785 4.56619C109.779 4.56051 109.771 4.55767 109.762 4.56051C109.754 4.56051 109.748 4.56903 109.748 4.57756L108.836 11.7153C108.836 11.7153 108.833 11.721 108.83 11.721C108.827 11.721 108.825 11.7181 108.825 11.7153C108.825 11.7124 108.825 11.7096 108.819 11.7096L108.467 11.6755C108.467 11.6755 108.455 11.6755 108.452 11.6812C108.45 11.6869 108.447 11.6897 108.444 11.6954L107.651 19.6031C107.651 19.6031 107.651 19.6145 107.657 19.6173L107.66 19.6117ZM111.311 20.3874C111.311 20.3874 111.317 20.3959 111.322 20.3987C111.538 20.4755 111.754 20.5607 111.97 20.6488C111.976 20.6488 111.981 20.6488 111.987 20.6488C111.993 20.6488 111.996 20.6431 111.998 20.6374L115.263 12.6132C115.263 12.6132 115.263 12.599 115.263 12.5933C115.118 12.3859 114.971 12.1671 114.82 11.9397C114.817 11.9341 114.809 11.9312 114.8 11.9312C114.792 11.9312 114.786 11.9369 114.783 11.9454L114.377 12.9968C114.377 12.9968 114.36 13.0138 114.351 13.0081L114.132 12.9257C114.132 12.9257 114.121 12.9257 114.115 12.9257C114.11 12.9257 114.107 12.9314 114.104 12.9371L111.317 20.3732C111.317 20.3732 111.317 20.3845 111.317 20.3902L111.311 20.3874ZM112.254 12.3574L110.117 20.0038C110.117 20.0038 110.117 20.0151 110.117 20.0208C110.117 20.0265 110.126 20.0293 110.129 20.0293C110.365 20.0919 110.598 20.1601 110.831 20.2339C110.836 20.2339 110.842 20.2339 110.848 20.2339C110.853 20.2339 110.856 20.2283 110.859 20.2226L113.868 10.4935C113.868 10.4935 113.868 10.4821 113.868 10.4764C113.715 10.2349 113.553 9.98199 113.382 9.71774C113.377 9.71205 113.371 9.70637 113.362 9.70921C113.354 9.70921 113.348 9.7149 113.345 9.72342L112.567 12.4057C112.567 12.4057 112.553 12.4228 112.541 12.42L112.28 12.3461C112.28 12.3461 112.268 12.3461 112.266 12.3461C112.26 12.3461 112.257 12.3518 112.257 12.3574H112.254ZM108.898 19.7594C108.898 19.7594 108.907 19.7679 108.913 19.7679C109.166 19.8106 109.418 19.8589 109.668 19.9157C109.674 19.9157 109.68 19.9157 109.683 19.9157C109.688 19.9128 109.691 19.9072 109.691 19.9015L112.268 8.02708C112.268 8.02708 112.268 8.01571 112.266 8.01003C112.095 7.75714 111.916 7.49288 111.731 7.2201C111.726 7.21442 111.717 7.20874 111.711 7.21158C111.703 7.21158 111.697 7.2201 111.694 7.22863L110.717 11.9653C110.717 11.9653 110.703 11.9824 110.694 11.9824L110.39 11.9255C110.39 11.9255 110.379 11.9255 110.376 11.9284C110.373 11.9312 110.367 11.9369 110.367 11.9426L108.898 19.748C108.898 19.748 108.898 19.7594 108.901 19.7623L108.898 19.7594ZM97.9106 44.5027C97.9106 44.5027 97.9077 44.4914 97.9021 44.4885C97.7344 44.355 97.581 44.2271 97.4219 44.0879C97.419 44.085 97.4133 44.0822 97.4076 44.0822C97.402 44.0822 97.3963 44.085 97.3934 44.0907L87.3745 56.0134C87.3745 56.0134 87.3688 56.0305 87.3745 56.0362C87.4882 56.2209 87.6132 56.4056 87.7496 56.5874C87.7524 56.5931 87.7581 56.5959 87.7666 56.5959C87.7723 56.5959 87.778 56.5959 87.7837 56.5874L97.9106 44.5141C97.9106 44.5141 97.9163 44.5056 97.9163 44.4999L97.9106 44.5027ZM116.346 54.1381L116.474 54.0756C116.474 54.0756 116.488 54.0585 116.482 54.0472L112.72 46.1479C112.72 46.1479 112.715 46.1394 112.709 46.1366C112.703 46.1366 112.697 46.1366 112.692 46.1366C112.499 46.2303 112.305 46.3184 112.109 46.4008C112.104 46.4008 112.101 46.4065 112.098 46.4122C112.098 46.4179 112.098 46.4235 112.098 46.4292L117.113 57.545C117.113 57.545 117.122 57.5563 117.127 57.5563C117.133 57.5563 117.141 57.5563 117.144 57.5507C117.298 57.3802 117.446 57.1841 117.585 56.9682C117.588 56.9625 117.59 56.954 117.585 56.9483L116.329 54.1637C116.329 54.1637 116.329 54.1409 116.337 54.1381H116.346ZM116.639 43.3264C116.639 43.3264 116.63 43.3207 116.624 43.3207C116.619 43.3207 116.613 43.3207 116.61 43.3264C116.462 43.4798 116.309 43.6276 116.153 43.7725C116.15 43.7753 116.147 43.781 116.147 43.7867C116.147 43.7924 116.147 43.798 116.153 43.8009L120.725 48.5234C120.725 48.5234 120.736 48.5291 120.742 48.5291C120.747 48.5291 120.753 48.5262 120.756 48.5205C120.881 48.3358 121.012 48.1597 121.145 47.9949C121.151 47.9863 121.151 47.975 121.145 47.9665L116.639 43.3235V43.3264ZM105.213 0.531337C104.991 0.420521 104.773 0.326753 104.56 0.247193C104.554 0.247193 104.545 0.247193 104.54 0.247193C104.534 0.250034 104.531 0.258558 104.531 0.264241L105.151 13.8691C105.151 13.8691 105.145 13.8833 105.136 13.8833C105.128 13.8833 105.122 13.8776 105.122 13.8719L104.96 11.6528C104.96 11.6528 104.949 11.6329 104.937 11.6329L104.599 11.6584C104.599 11.6584 104.588 11.6613 104.585 11.6641C104.582 11.667 104.579 11.6727 104.579 11.6783L105.159 19.6287C105.159 19.6287 105.162 19.6401 105.168 19.6429C105.17 19.6458 105.176 19.6486 105.182 19.6486C105.475 19.6173 105.77 19.6003 106.066 19.5889C106.071 19.5889 106.077 19.5889 106.08 19.5832C106.083 19.5804 106.085 19.5747 106.085 19.569L105.219 0.545545C105.219 0.545545 105.213 0.531337 105.207 0.528496L105.213 0.531337ZM114.539 54.9308L114.704 54.8683C114.704 54.8683 114.721 54.8513 114.715 54.8428L111.606 46.6338C111.606 46.6338 111.601 46.6253 111.595 46.6225C111.589 46.6225 111.584 46.6225 111.578 46.6225C111.379 46.6992 111.177 46.7702 110.976 46.8356C110.97 46.8356 110.967 46.8412 110.964 46.8469C110.964 46.8526 110.964 46.8583 110.964 46.864L115.087 58.6162C115.087 58.6162 115.098 58.6304 115.107 58.6304C115.323 58.6105 115.536 58.5679 115.744 58.5025C115.749 58.5025 115.752 58.4969 115.755 58.4912C115.755 58.4855 115.755 58.4798 115.755 58.4741L114.522 54.9621C114.522 54.9621 114.522 54.9394 114.533 54.9365L114.539 54.9308ZM115.752 44.1618C115.752 44.1618 115.744 44.1561 115.738 44.1532C115.732 44.1532 115.726 44.1532 115.724 44.1589C115.562 44.2981 115.397 44.4317 115.229 44.5624C115.224 44.5652 115.224 44.5709 115.221 44.5766C115.221 44.5823 115.221 44.588 115.226 44.5908L119.81 50.2254C119.81 50.2254 119.821 50.2339 119.83 50.2339C119.835 50.2339 119.844 50.2282 119.847 50.2226C119.949 49.9839 120.057 49.7509 120.168 49.5321C120.17 49.5236 120.168 49.515 120.168 49.5094L115.758 44.1589L115.752 44.1618ZM118.065 53.2288C118.065 53.2288 118.065 53.2061 118.073 53.2004L118.167 53.1436C118.167 53.1436 118.181 53.1265 118.176 53.1152L113.789 45.5796C113.789 45.5796 113.78 45.5711 113.777 45.5711C113.772 45.5711 113.766 45.5711 113.763 45.5711C113.578 45.6791 113.394 45.7842 113.206 45.8837C113.2 45.8837 113.198 45.8894 113.195 45.895C113.195 45.9007 113.195 45.9064 113.195 45.9121L118.375 55.1724C118.375 55.1724 118.386 55.1837 118.395 55.1837C118.403 55.1837 118.409 55.1781 118.412 55.1695C118.5 54.8996 118.582 54.6098 118.659 54.3C118.659 54.2944 118.659 54.2887 118.659 54.2858L118.065 53.226V53.2288ZM79.0974 16.3326L94.5918 26.3828C94.5918 26.3828 94.6031 26.3857 94.6088 26.3828C94.6145 26.3828 94.6202 26.3771 94.623 26.3743C94.7907 26.093 94.9725 25.8202 95.1572 25.556C95.1629 25.5474 95.1629 25.5332 95.1515 25.5275L88.5054 20.6374C88.5054 20.6374 88.4827 20.6317 88.477 20.6431L88.2752 20.9159C88.2752 20.9159 88.2696 20.9244 88.2724 20.9301C88.2724 20.9358 88.2752 20.9415 88.2809 20.9443L93.6598 24.8939C93.6598 24.8939 93.6712 24.9138 93.6655 24.9223C93.6598 24.9308 93.6456 24.9337 93.6371 24.928L79.0775 15.5086C79.0775 15.5086 79.0633 15.5029 79.0576 15.5086C79.0519 15.5114 79.0462 15.5171 79.0462 15.5257C79.0292 15.7899 79.0462 16.057 79.0917 16.3213C79.0917 16.3269 79.0945 16.3326 79.1002 16.3355L79.0974 16.3326ZM106.998 47.5374C106.998 47.5374 106.989 47.5317 106.983 47.5317C106.73 47.5374 106.475 47.5402 106.219 47.5317C106.213 47.5317 106.208 47.5317 106.205 47.5374C106.202 47.5431 106.199 47.5459 106.199 47.5516L106.134 55.573C106.134 55.573 106.142 55.5929 106.151 55.5929C106.478 55.627 106.807 55.681 107.137 55.7492C107.142 55.7492 107.148 55.7492 107.154 55.7463C107.159 55.7435 107.162 55.7378 107.162 55.7293L107.003 47.5488C107.003 47.5488 107.003 47.5374 106.998 47.5346V47.5374ZM108.165 47.4578C108.165 47.4578 108.157 47.4522 108.151 47.4522C107.912 47.4777 107.671 47.5005 107.429 47.5147C107.424 47.5147 107.418 47.5175 107.415 47.5204C107.412 47.5232 107.41 47.5289 107.41 47.5346L108.072 55.9737C108.072 55.9737 108.077 55.9879 108.086 55.9907C108.361 56.0731 108.637 56.164 108.907 56.2635C108.91 56.2635 108.913 56.2635 108.916 56.2635L109.089 56.2464C109.089 56.2464 109.1 56.2436 109.103 56.2379C109.106 56.2351 109.109 56.2294 109.109 56.2237L108.174 47.4692C108.174 47.4692 108.171 47.4578 108.165 47.455V47.4578ZM112.666 55.5247L112.871 55.465C112.871 55.465 112.879 55.4594 112.882 55.4565C112.882 55.4508 112.885 55.4451 112.882 55.4423L110.467 47.0146C110.467 47.0146 110.453 46.9975 110.441 47.0004C110.234 47.06 110.024 47.114 109.813 47.1652C109.808 47.1652 109.805 47.1709 109.799 47.1737C109.796 47.1794 109.796 47.1851 109.799 47.1907L112.578 58.0223C112.578 58.0223 112.584 58.0337 112.589 58.0365C112.848 58.153 113.095 58.2582 113.331 58.3491C113.34 58.3491 113.345 58.3491 113.351 58.3463C113.357 58.3406 113.36 58.3321 113.357 58.3264L112.649 55.556C112.649 55.556 112.652 55.5332 112.663 55.5304L112.666 55.5247ZM109.322 47.2788C109.322 47.2788 109.31 47.276 109.308 47.276C109.083 47.3214 108.859 47.3584 108.631 47.3925C108.626 47.3925 108.62 47.3953 108.617 47.401C108.614 47.4067 108.611 47.4124 108.614 47.4152L110.171 56.7835C110.171 56.7835 110.177 56.7948 110.183 56.7977C110.424 56.9113 110.66 57.0278 110.887 57.1472C110.893 57.15 110.902 57.15 110.91 57.1472C110.916 57.1415 110.919 57.1358 110.919 57.1273L110.737 56.0134C110.737 56.0134 110.743 55.9935 110.754 55.9907L111.001 55.9424C111.001 55.9424 111.012 55.9396 111.015 55.9339C111.018 55.9282 111.018 55.9225 111.018 55.9197L109.333 47.2959C109.333 47.2959 109.33 47.2845 109.325 47.2817L109.322 47.2788ZM114.803 44.9147C114.803 44.9147 114.794 44.9062 114.789 44.9062C114.783 44.9062 114.777 44.9062 114.775 44.9091C114.601 45.0341 114.425 45.1534 114.246 45.2699C114.24 45.2728 114.238 45.2784 114.238 45.2841C114.238 45.2898 114.238 45.2955 114.24 45.2983L119.071 52.4133C119.071 52.4133 119.082 52.4247 119.091 52.4218C119.099 52.4218 119.105 52.4133 119.108 52.4076C119.193 52.0866 119.284 51.7797 119.381 51.4842C119.381 51.4785 119.381 51.4728 119.381 51.4671L114.806 44.9176L114.803 44.9147ZM136.117 36.3762L128.851 35.5664C128.851 35.5664 128.831 35.555 128.834 35.5437V35.5124C128.834 35.5124 128.828 35.4925 128.817 35.4897L120.571 34.6458C120.571 34.6458 120.56 34.6458 120.557 34.6514C120.554 34.6543 120.551 34.66 120.548 34.6656C120.531 34.8788 120.509 35.089 120.483 35.3021C120.483 35.3078 120.483 35.3135 120.486 35.3163C120.489 35.3192 120.494 35.322 120.5 35.3249L135.972 37.0468C135.972 37.0468 135.992 37.0411 135.994 37.0326C136.043 36.828 136.088 36.6177 136.131 36.4046C136.131 36.3989 136.131 36.3932 136.128 36.3876C136.125 36.3819 136.12 36.379 136.114 36.379L136.117 36.3762ZM135.432 38.8511L128.629 37.4929C128.629 37.4929 128.612 37.4815 128.612 37.4701L128.618 37.4275C128.618 37.4275 128.612 37.4076 128.601 37.4048L120.421 35.8534C120.421 35.8534 120.409 35.8534 120.406 35.8562C120.401 35.8591 120.398 35.8647 120.398 35.8704C120.364 36.0807 120.321 36.2881 120.278 36.4984C120.278 36.5041 120.278 36.5097 120.281 36.5126C120.284 36.5183 120.29 36.5211 120.296 36.5211L135.19 39.4961C135.19 39.4961 135.21 39.4933 135.213 39.4847C135.296 39.2887 135.372 39.0869 135.449 38.8795C135.449 38.8738 135.449 38.8681 135.449 38.8625C135.446 38.8568 135.44 38.8539 135.435 38.8511H135.432ZM128.24 39.3938C128.24 39.3938 128.223 39.3796 128.226 39.3682L128.257 39.2461C128.257 39.2461 128.254 39.2233 128.243 39.2205L120.17 37.0383C120.17 37.0383 120.159 37.0383 120.156 37.0383C120.151 37.0383 120.148 37.0468 120.148 37.0496C120.094 37.2542 120.037 37.4588 119.974 37.6634C119.974 37.6691 119.974 37.6747 119.974 37.6804C119.974 37.6861 119.98 37.6889 119.986 37.6889L133.977 41.7664C133.977 41.7664 133.994 41.7664 134 41.7579C134.122 41.576 134.241 41.3885 134.355 41.1953C134.358 41.1896 134.358 41.1839 134.355 41.1782C134.355 41.1726 134.346 41.1669 134.341 41.1669L128.237 39.3881L128.24 39.3938ZM136.54 31.2445C136.54 31.2445 136.54 31.2332 136.534 31.2303C136.532 31.2275 136.526 31.2247 136.52 31.2247L120.546 32.2135C120.546 32.2135 120.534 32.2163 120.531 32.222C120.529 32.2277 120.526 32.2305 120.526 32.2362C120.546 32.4465 120.563 32.6596 120.571 32.8727C120.571 32.8784 120.571 32.8841 120.577 32.8869C120.582 32.8897 120.585 32.8926 120.591 32.8926L136.526 31.9038C136.526 31.9038 136.546 31.8952 136.546 31.8839C136.546 31.6651 136.543 31.452 136.537 31.2445H136.54ZM136.455 33.8161L128.899 33.6314C128.899 33.6314 128.88 33.6228 128.88 33.6115V33.5944C128.88 33.5944 128.871 33.5745 128.86 33.5745L120.611 33.4296C120.611 33.4296 120.6 33.4296 120.597 33.4353C120.594 33.4381 120.591 33.4438 120.591 33.4495C120.591 33.6626 120.591 33.8757 120.582 34.0888C120.582 34.0945 120.582 34.1002 120.588 34.103C120.591 34.1059 120.597 34.1087 120.602 34.1087L136.398 34.4952C136.398 34.4952 136.418 34.4866 136.418 34.4781C136.441 34.2678 136.458 34.0547 136.475 33.8388C136.475 33.8331 136.475 33.8274 136.469 33.8246C136.466 33.8217 136.46 33.8189 136.455 33.8189V33.8161ZM117.448 42.4256C117.448 42.4256 117.44 42.4199 117.434 42.4199C117.428 42.4199 117.423 42.4228 117.42 42.4285C117.284 42.5933 117.147 42.7552 117.005 42.9115C117.002 42.9144 116.999 42.92 116.999 42.9257C116.999 42.9314 117.002 42.9371 117.005 42.9399L121.898 47.1907C121.898 47.1907 121.918 47.1964 121.924 47.1907C122.088 47.0458 122.259 46.9151 122.438 46.7929C122.444 46.7901 122.446 46.7844 122.446 46.7759C122.446 46.7702 122.446 46.7645 122.441 46.7588L117.451 42.4228L117.448 42.4256ZM127.689 41.2578C127.689 41.2578 127.675 41.2436 127.678 41.2322L127.72 41.11C127.72 41.11 127.72 41.0873 127.709 41.0845L119.818 38.2061C119.818 38.2061 119.807 38.2061 119.801 38.2061C119.795 38.2061 119.793 38.2118 119.79 38.2174C119.719 38.4164 119.645 38.6181 119.562 38.8142C119.562 38.8198 119.562 38.8255 119.562 38.8312C119.562 38.8369 119.568 38.8397 119.574 38.8426L132.244 43.7554C132.244 43.7554 132.258 43.7554 132.264 43.7526C132.44 43.5992 132.61 43.4372 132.778 43.2667C132.784 43.261 132.784 43.2553 132.784 43.2468C132.784 43.2383 132.778 43.2354 132.772 43.2326L127.686 41.2606L127.689 41.2578ZM118.176 41.451C118.176 41.451 118.164 41.4453 118.162 41.4482C118.159 41.451 118.15 41.451 118.147 41.4567C118.028 41.6329 117.903 41.8062 117.775 41.9767C117.772 41.9824 117.769 41.9852 117.772 41.9909C117.772 41.9966 117.775 42.0023 117.781 42.0051L123.543 46.1962C123.543 46.1962 123.557 46.2019 123.563 46.1962C123.805 46.0996 124.055 46.0201 124.313 45.9547C124.322 45.9547 124.328 45.9462 124.328 45.9377C124.328 45.9291 124.328 45.9206 124.319 45.9178L118.176 41.4482V41.451ZM126.112 44.8181C126.112 44.8181 126.101 44.8011 126.103 44.7897L126.206 44.605C126.206 44.605 126.206 44.5823 126.197 44.5766L118.812 40.4139C118.812 40.4139 118.801 40.411 118.798 40.4139C118.792 40.4139 118.79 40.4196 118.787 40.4224C118.682 40.6099 118.574 40.7918 118.46 40.9737C118.457 40.9793 118.457 40.985 118.46 40.9879C118.463 40.9907 118.466 40.9964 118.468 40.9992L126.325 45.7359C126.325 45.7359 126.331 45.7388 126.336 45.7388C126.504 45.7388 126.675 45.7473 126.848 45.7587C127.101 45.7757 127.354 45.7757 127.612 45.7587C127.621 45.7587 127.629 45.753 127.632 45.7444C127.632 45.7359 127.632 45.7274 127.624 45.7217L126.118 44.8153L126.112 44.8181ZM126.979 43.0706C126.979 43.0706 126.964 43.0536 126.97 43.0451L127.027 42.9144C127.027 42.9144 127.027 42.8916 127.016 42.8888L119.364 39.3341C119.364 39.3341 119.352 39.3341 119.346 39.3341C119.341 39.3341 119.338 39.3398 119.335 39.3455C119.318 39.3881 119.301 39.4279 119.281 39.4705C119.21 39.624 119.133 39.7717 119.057 39.9195C119.057 39.9252 119.054 39.9308 119.057 39.9365C119.057 39.9422 119.062 39.945 119.068 39.9479L129.863 45.2444C129.863 45.2444 129.874 45.2444 129.88 45.2444C130.13 45.1421 130.38 45.0284 130.624 44.8949C130.63 44.892 130.636 44.8835 130.636 44.8778C130.636 44.8721 130.63 44.8636 130.624 44.8608L126.979 43.0735V43.0706ZM107.986 2.58002C107.779 2.38112 107.574 2.19358 107.37 2.01741C107.364 2.01173 107.356 2.01173 107.347 2.01457C107.339 2.01741 107.336 2.02594 107.336 2.03162L106.901 12.67C106.901 12.67 106.895 12.6785 106.89 12.6785C106.884 12.6785 106.881 12.6728 106.881 12.6672L106.895 11.6045C106.895 11.6045 106.895 11.5931 106.89 11.5903C106.887 11.5874 106.881 11.5846 106.875 11.5846L106.537 11.5789C106.537 11.5789 106.517 11.5874 106.517 11.5988L106.409 19.5548C106.409 19.5548 106.409 19.5662 106.415 19.569C106.421 19.5719 106.424 19.5747 106.429 19.5747C106.711 19.5719 106.995 19.5776 107.276 19.5918C107.282 19.5918 107.287 19.5918 107.29 19.5861C107.293 19.5832 107.296 19.5776 107.296 19.5719L107.989 2.59139C107.989 2.59139 107.989 2.58002 107.984 2.57718L107.986 2.58002ZM93.2591 29.4033C93.2591 29.4033 93.2677 29.3976 93.2705 29.3919C93.3643 29.0964 93.4666 28.8037 93.5802 28.5111C93.5831 28.4997 93.5802 28.4883 93.5689 28.4855L85.8543 25.2605C85.8543 25.2605 85.843 25.2605 85.8373 25.2605C85.8316 25.2605 85.8287 25.2661 85.8259 25.2718L85.6952 25.5844C85.6952 25.5844 85.6952 25.6071 85.7066 25.61L91.3696 27.9826C91.3696 27.9826 91.3838 27.9996 91.3809 28.0081C91.3781 28.0167 91.3667 28.0223 91.3554 28.0195L84.7291 25.7009C84.7291 25.7009 84.7121 25.7009 84.7064 25.7066C84.7007 25.7122 84.7007 25.7208 84.7064 25.7293C84.8484 25.9964 84.9905 26.272 85.1269 26.5533C85.1269 26.559 85.1326 26.5618 85.1383 26.5647L93.2478 29.4061C93.2478 29.4061 93.2591 29.4061 93.2648 29.4061L93.2591 29.4033ZM105.815 47.5118C105.548 47.4976 105.284 47.4749 105.017 47.4436C105.011 47.4436 105.006 47.4436 105.003 47.4493C105 47.455 104.997 47.4578 104.994 47.4635L104.221 55.6242C104.221 55.6242 104.221 55.6355 104.227 55.6412C104.233 55.6469 104.238 55.6469 104.244 55.6469C104.432 55.6128 104.625 55.5872 104.821 55.5702C104.83 55.5702 104.838 55.5616 104.841 55.5531L104.918 54.8797C104.918 54.8797 104.929 54.8598 104.94 54.8626C104.952 54.8626 104.96 54.874 104.96 54.8854L104.918 55.5446C104.918 55.5446 104.918 55.556 104.923 55.5616C104.926 55.5645 104.932 55.5673 104.94 55.5673C105.054 55.5616 105.165 55.556 105.281 55.556C105.293 55.556 105.301 55.5474 105.301 55.5361L105.838 47.5402C105.838 47.5402 105.838 47.5289 105.833 47.526C105.83 47.5232 105.824 47.5204 105.818 47.5204L105.815 47.5118ZM93.6626 28.2724C93.6626 28.2724 93.6712 28.2667 93.674 28.261C93.7592 28.0564 93.8473 27.8519 93.9411 27.6473C93.961 27.6075 93.9809 27.5677 94.0008 27.5251C94.0064 27.5137 94.0008 27.5024 93.9922 27.4967L86.5476 23.7573C86.5476 23.7573 86.5249 23.7573 86.5192 23.7659L86.3686 24.067C86.3686 24.067 86.3658 24.0784 86.3686 24.0841C86.3715 24.0898 86.3743 24.0926 86.38 24.0955L91.8924 26.7749C91.8924 26.7749 91.9066 26.792 91.9009 26.8034C91.8952 26.8147 91.8839 26.8176 91.8725 26.8119L82.8964 22.6889C82.8964 22.6889 82.8793 22.6889 82.8736 22.6946C82.868 22.7003 82.868 22.7117 82.8736 22.7202C83.0868 23.0356 83.3027 23.3624 83.5187 23.7005C83.5187 23.7033 83.5243 23.7062 83.5272 23.709L93.6456 28.2695C93.6456 28.2695 93.6569 28.2695 93.6626 28.2695V28.2724ZM94.1059 27.3006C94.1059 27.3006 94.1144 27.2949 94.1173 27.2892C94.2394 27.0477 94.3645 26.8119 94.498 26.5789C94.5037 26.5704 94.498 26.5562 94.4923 26.5505L87.4143 22.2315C87.4143 22.2315 87.3916 22.2286 87.3859 22.2372L87.2097 22.527C87.2097 22.527 87.2069 22.5383 87.2097 22.5412C87.2125 22.544 87.2154 22.5497 87.2182 22.5526L92.6511 25.7435C92.6511 25.7435 92.6653 25.7605 92.6596 25.7719C92.6539 25.7804 92.6425 25.7861 92.6312 25.7804L80.5408 19.3161C80.5408 19.3161 80.5238 19.3161 80.5152 19.3218C80.5096 19.3275 80.5096 19.3389 80.5152 19.3474C80.7596 19.7139 81.0267 20.0947 81.308 20.4925C81.308 20.4925 81.3109 20.4982 81.3137 20.4982L94.0917 27.2978C94.0917 27.2978 94.103 27.3006 94.1087 27.2978L94.1059 27.3006ZM99.5416 55.323C99.5416 55.323 99.5501 55.3173 99.5529 55.3116L102.394 46.9038C102.394 46.9038 102.394 46.8924 102.394 46.8867C102.394 46.881 102.389 46.8782 102.383 46.8753C102.093 46.7844 101.806 46.6821 101.519 46.5685C101.514 46.5685 101.508 46.5685 101.502 46.5685C101.496 46.5685 101.494 46.5741 101.491 46.5798L96.6518 59.6959C96.6518 59.6959 96.6518 59.7102 96.6547 59.7158C96.6603 59.7215 96.666 59.7244 96.6746 59.7215C96.9331 59.659 97.186 59.5908 97.4332 59.5113C97.4389 59.5113 97.4446 59.5056 97.4474 59.4999L100.351 51.6262C100.351 51.6262 100.366 51.6092 100.377 51.6149C100.388 51.6177 100.394 51.6291 100.388 51.6404L99.1892 55.1866C99.1892 55.1866 99.1892 55.2093 99.2034 55.2121L99.5245 55.3201C99.5245 55.3201 99.5359 55.3201 99.5387 55.3201L99.5416 55.323ZM92.9494 30.5598C92.9494 30.5598 92.9579 30.5512 92.9579 30.5455C93.0233 30.2472 93.0972 29.946 93.1824 29.6505C93.1853 29.6391 93.1796 29.6278 93.1682 29.6249L85.4366 27.1529C85.4366 27.1529 85.4196 27.1529 85.4139 27.1585C85.4082 27.1642 85.4082 27.1727 85.4111 27.1813C85.4736 27.3177 85.5332 27.4569 85.5958 27.5961C85.5958 27.6018 85.6014 27.6046 85.6071 27.6075L90.8524 29.3124C90.8524 29.3124 90.8695 29.3266 90.8666 29.3379C90.8638 29.3493 90.8524 29.355 90.8411 29.3521L85.8145 28.0394C85.8145 28.0394 85.8003 28.0394 85.7947 28.0451C85.789 28.0508 85.789 28.0593 85.7918 28.065C85.8884 28.3036 85.9822 28.548 86.0731 28.7952C86.0731 28.8009 86.0816 28.8066 86.0873 28.8066L92.9295 30.5569C92.9295 30.5569 92.9409 30.5569 92.9466 30.5569L92.9494 30.5598ZM98.7204 47.9579C98.7204 47.9579 98.7346 47.975 98.7289 47.9863L95.6602 53.6209C95.6602 53.6209 95.6573 53.6323 95.6602 53.6351C95.6602 53.6408 95.6658 53.6437 95.6687 53.6465L95.967 53.8085C95.967 53.8085 95.9898 53.8085 95.9954 53.7999L100.238 46.0115C100.238 46.0115 100.241 46.0002 100.238 45.9945C100.238 45.9888 100.232 45.986 100.226 45.9831C99.9309 45.8325 99.641 45.6706 99.3597 45.5029C99.354 45.5029 99.3484 45.5001 99.3427 45.5029C99.337 45.5029 99.3341 45.5086 99.3313 45.5114L91.29 59.3607C91.29 59.3607 91.2872 59.372 91.29 59.3777C91.2929 59.3834 91.2957 59.3891 91.3014 59.3891C91.506 59.4743 91.7077 59.5454 91.9123 59.6107C91.9208 59.6135 91.9322 59.6107 91.935 59.6022L98.692 47.9665C98.692 47.9665 98.709 47.9522 98.7204 47.9579ZM104.665 47.4067C104.665 47.4067 104.656 47.3982 104.65 47.3982C104.375 47.3584 104.099 47.3101 103.824 47.2533C103.818 47.2533 103.812 47.2533 103.809 47.2561C103.804 47.2589 103.801 47.2646 103.801 47.2703L102.079 56.6869C102.079 56.6869 102.079 56.7039 102.09 56.7096C102.102 56.7153 102.107 56.7124 102.113 56.7067C102.335 56.4908 102.576 56.3118 102.832 56.1612C102.838 56.1583 102.84 56.1527 102.84 56.147L103.17 54.3597C103.17 54.3597 103.181 54.3427 103.193 54.3427C103.204 54.3427 103.213 54.354 103.21 54.3654L102.96 55.9765L102.948 56.0532C102.948 56.0532 102.948 56.0674 102.957 56.0731C102.963 56.0788 102.971 56.0788 102.98 56.0731C103.099 56.0106 103.221 55.9538 103.346 55.9026C103.352 55.9026 103.358 55.8941 103.358 55.8856L104.665 47.4209C104.665 47.4209 104.665 47.4095 104.662 47.4067H104.665ZM103.517 47.1936C103.517 47.1936 103.508 47.1851 103.503 47.1851C103.218 47.1197 102.934 47.0458 102.653 46.9634C102.647 46.9634 102.642 46.9634 102.636 46.9634C102.63 46.9634 102.627 46.972 102.627 46.9748L99.4364 58.6361C99.4364 58.6361 99.4364 58.6531 99.4421 58.6588C99.4478 58.6645 99.4563 58.6645 99.4649 58.6588C99.7405 58.5139 100.005 58.3605 100.255 58.2014C100.26 58.2014 100.263 58.1957 100.263 58.19L101.61 53.2714C101.61 53.2714 101.624 53.2544 101.636 53.2572C101.647 53.2572 101.653 53.2714 101.65 53.2828L101.065 55.7179C101.065 55.7179 101.067 55.7407 101.079 55.7435L101.408 55.8231C101.408 55.8231 101.42 55.8231 101.423 55.8231C101.428 55.8231 101.431 55.8145 101.431 55.8117L103.517 47.2135C103.517 47.2135 103.517 47.2021 103.517 47.1993V47.1936ZM99.4251 49.7821C99.4251 49.7821 99.4393 49.7992 99.4364 49.8077L97.3934 54.4819C97.3934 54.4819 97.3934 54.5046 97.4048 54.5075L97.7145 54.6439C97.7145 54.6439 97.7259 54.6439 97.7316 54.6439C97.7373 54.6439 97.7401 54.6382 97.7429 54.6325L101.298 46.5031C101.298 46.5031 101.298 46.4917 101.298 46.4861C101.298 46.4804 101.292 46.4775 101.286 46.4747C101.09 46.3951 100.897 46.3099 100.704 46.2218C100.607 46.1763 100.513 46.128 100.417 46.0797C100.411 46.0797 100.405 46.0797 100.4 46.0797C100.394 46.0797 100.391 46.0854 100.388 46.0911L93.8672 59.9488C93.8672 59.9488 93.8672 59.963 93.8672 59.9687C93.87 59.9744 93.8757 59.9773 93.8843 59.9801C94.1201 59.9943 94.3531 60 94.5861 59.9943C94.5946 59.9943 94.6003 59.9886 94.6031 59.9829L99.3995 49.7907C99.3995 49.7907 99.4166 49.7765 99.4251 49.7821ZM96.1688 42.8632C96.1688 42.8632 96.1688 42.8519 96.1631 42.849C96.021 42.6899 95.8846 42.5279 95.7511 42.3631C95.7482 42.3603 95.7426 42.3574 95.7369 42.3546C95.7312 42.3546 95.7255 42.3546 95.7227 42.3603L86.4169 50.1856C86.4169 50.1856 86.4113 50.1941 86.4084 50.1998C86.38 50.501 86.3573 50.7994 86.3431 51.0892C86.3431 51.0977 86.3459 51.1063 86.3544 51.1091C86.3629 51.1119 86.3715 51.1091 86.3771 51.1091L96.1603 42.8803C96.1603 42.8803 96.1659 42.8717 96.1688 42.8661V42.8632ZM86.4027 29.7158L90.4688 30.6393C90.4688 30.6393 90.4859 30.6535 90.483 30.662C90.483 30.6734 90.4717 30.6791 90.4603 30.6791L86.5192 30.0256C86.5192 30.0256 86.505 30.0256 86.4993 30.0312C86.4937 30.0369 86.4937 30.0426 86.4965 30.0511C86.5647 30.2728 86.63 30.5001 86.6926 30.7302C86.6926 30.7388 86.7011 30.7444 86.7096 30.7444L92.7249 31.7418C92.7249 31.7418 92.7363 31.7418 92.7392 31.739C92.7448 31.7361 92.7477 31.7304 92.7477 31.7247C92.7875 31.4236 92.8386 31.1224 92.9011 30.8212C92.9011 30.8098 92.8954 30.7984 92.8869 30.7984L86.2919 29.301C86.2919 29.301 86.2777 29.301 86.272 29.3067C86.2663 29.3124 86.2663 29.3209 86.2692 29.3266C86.3118 29.4516 86.3516 29.5766 86.3942 29.7016C86.3942 29.7073 86.4027 29.713 86.4084 29.7158H86.4027ZM97.007 43.7213C97.007 43.7213 97.007 43.71 97.0013 43.7071C96.845 43.5594 96.7058 43.4201 96.5581 43.2667C96.5552 43.2639 96.5495 43.261 96.5438 43.261C96.5382 43.261 96.5325 43.261 96.5296 43.2667L86.434 53.3453C86.434 53.3453 86.4283 53.3567 86.4283 53.3624C86.4652 53.6181 86.5192 53.871 86.5789 54.1182C86.5789 54.1267 86.5874 54.1324 86.5931 54.1324C86.5988 54.1324 86.6073 54.1324 86.613 54.1267L97.0013 43.7355C97.0013 43.7355 97.007 43.727 97.007 43.7213ZM97.8424 46.7844C97.8424 46.7844 97.8538 46.8043 97.8481 46.8128L94.0064 52.6151C94.0064 52.6151 94.0036 52.6378 94.0121 52.6435L94.2934 52.831C94.2934 52.831 94.3048 52.8339 94.3076 52.8339C94.3133 52.8339 94.319 52.831 94.3218 52.8253L99.2148 45.4404C99.2148 45.4404 99.2176 45.429 99.2176 45.4234C99.2176 45.4177 99.212 45.412 99.2091 45.4092C99.1068 45.3466 99.0045 45.2841 98.9051 45.2188C98.7232 45.0994 98.53 44.9659 98.3567 44.838C98.351 44.8352 98.3453 44.8323 98.3425 44.8352C98.3368 44.8352 98.3311 44.838 98.3283 44.8437L89.0907 57.9911C89.0907 57.9911 89.085 58.011 89.0936 58.0195C89.2584 58.1616 89.426 58.2951 89.5965 58.4201C89.6022 58.423 89.6079 58.4258 89.6107 58.423C89.6164 58.423 89.6221 58.4201 89.6249 58.4145L97.8168 46.7901C97.8168 46.7901 97.8367 46.7787 97.8452 46.7844H97.8424Z" fill="url(#paint0_linear_65_445)"/>
<path d="M13.7242 19.4071H15.2586V47.3556H13.7242V44.5567C12.1529 46.972 9.66092 47.7761 7.66622 47.7761C3.71661 47.7761 0 44.9403 0 39.4563C0 33.9723 3.87289 31.3667 7.66622 31.3667C10.502 31.3667 12.4967 32.671 13.7242 34.4326V19.4042V19.4071ZM1.6111 39.4194C1.6111 43.9799 4.6003 46.3184 7.74578 46.3184C10.8913 46.3184 13.8038 43.9799 13.8038 39.4194C13.8038 35.7767 11.542 32.8244 7.66907 32.8244C4.44971 32.8244 1.6111 35.0464 1.6111 39.4194ZM18.1341 39.7263C18.1341 43.7128 21.0466 46.3213 24.3455 46.3213C26.8772 46.3213 28.7924 44.8267 29.7897 42.7552L31.094 43.5224C30.1733 45.2841 28.1048 47.7789 24.2319 47.7789C19.3645 47.7789 16.5259 44.176 16.5259 39.6126C16.5259 34.1684 20.2822 31.3696 24.1154 31.3696C28.3321 31.3696 31.5145 34.7424 31.5145 39.7291H18.1313L18.1341 39.7263ZM29.9034 38.2686C29.5198 35.1629 27.2182 32.8244 24.1154 32.8244C21.0125 32.8244 18.6711 35.2396 18.2506 38.2686H29.9062H29.9034ZM34.3105 19.4071V47.3556H32.7761V19.4071H34.3105ZM61.4974 31.3667C57.3233 31.3667 54.1239 34.0633 53.3567 37.8367C53.1805 36.6177 52.6861 35.3135 51.5609 34.2451C50.5636 33.2875 49.1854 32.7107 48.0716 32.2902L46.1536 31.5628C44.4289 30.9121 43.548 30.6819 42.9343 30.108C42.5507 29.7613 42.3575 29.3038 42.3575 28.6901C42.3575 28.0394 42.6274 27.4626 43.0081 27.079C43.6986 26.3118 44.696 26.1981 45.5001 26.1981C46.2275 26.1981 47.8755 26.3146 49.7935 28.0394L52.4389 23.746C49.4497 21.524 46.6111 21.2171 44.8466 21.2171C42.4683 21.2171 40.323 21.7143 38.5215 23.5556C36.9871 25.1269 36.2995 27.0449 36.2995 29.3067C36.2995 30.5342 36.4899 32.3357 37.8339 33.7535C38.8312 34.8276 40.2093 35.3646 41.3999 35.7852L43.5082 36.5126C44.2356 36.7825 45.8098 37.3565 46.4974 37.9305C47.0345 38.3908 47.3783 38.9278 47.3783 39.7717C47.3783 40.7293 46.9578 41.4198 46.4577 41.8431C45.6138 42.5706 44.5397 42.724 43.7753 42.724C42.5876 42.724 41.5505 42.4171 40.556 41.8034C39.8655 41.3828 38.8312 40.4991 38.1777 39.8484L35.1118 44.0652C36.0693 45.0227 37.5639 46.2133 38.8682 46.864C40.4793 47.6681 42.0875 47.938 43.9288 47.938C45.6166 47.938 48.9127 47.7079 51.1745 45.3324C52.2059 44.2697 52.9788 42.6586 53.2857 40.7662C53.8255 44.8466 57.1358 47.8386 61.4946 47.8386C66.2966 47.8386 69.8172 44.2783 69.8172 39.6069C69.8172 34.9356 66.3279 31.3753 61.4946 31.3753L61.4974 31.3667ZM61.4974 43.1928C59.7386 43.1928 58.3605 41.6812 58.3605 39.5984C58.3605 37.5156 59.6391 36.004 61.4974 36.004C63.3557 36.004 64.6656 37.5156 64.6656 39.5984C64.6656 41.6812 63.2904 43.1928 61.4974 43.1928ZM76.5514 19.4071V47.3556H71.0305V19.4071H76.5514Z" fill="#FEBF3B"/>
</g>
<defs>
<linearGradient id="paint0_linear_65_445" x1="82.1036" y1="11.326" x2="123.413" y2="52.6321" gradientUnits="userSpaceOnUse">
<stop stop-color="#FEBF3B"/>
<stop offset="0.23" stop-color="#FDBB3C"/>
<stop offset="0.44" stop-color="#FAAF3F"/>
<stop offset="0.64" stop-color="#F69C44"/>
<stop offset="0.85" stop-color="#EF824B"/>
<stop offset="1" stop-color="#EA6953"/>
</linearGradient>
<clipPath id="clip0_65_445">
<rect width="136.549" height="60" fill="white"/>
</clipPath>
</defs>
</svg>
