<svg width="786" height="786" viewBox="0 0 786 786" fill="none" xmlns="http://www.w3.org/2000/svg">
<g clip-path="url(#clip0_22_3549)">
<path d="M560.927 573.561C560.927 573.561 560.984 573.448 560.965 573.392C560.965 573.335 560.927 573.279 560.871 573.241L485.652 517.204C485.558 517.128 485.426 517.147 485.35 517.241C484.616 518.202 484.031 519.031 483.278 519.955C483.24 519.992 483.221 520.068 483.24 520.124C483.259 520.181 483.278 520.237 483.334 520.275L558.459 576.482C558.553 576.557 558.685 576.538 558.761 576.444L560.927 573.543V573.561ZM465.867 538.213C465.867 538.213 465.792 538.307 465.792 538.364C465.792 538.42 465.811 538.477 465.848 538.514L530.666 607.026C530.666 607.026 530.761 607.101 530.817 607.101C530.874 607.101 530.93 607.082 530.968 607.044L533.587 604.557C533.587 604.557 533.681 604.331 533.587 604.256L468.826 535.801C468.826 535.801 468.599 535.707 468.524 535.801C467.639 536.611 466.753 537.422 465.848 538.232L465.867 538.213ZM618.548 200.594C618.548 200.594 618.642 200.443 618.604 200.368C618.585 200.293 618.51 200.236 618.416 200.217C617.361 200.104 616.268 199.991 615.175 199.897C613.178 199.765 611.143 199.652 609.051 199.577C608.994 199.577 608.938 199.596 608.9 199.633L475.496 323.711C475.496 323.711 475.42 323.805 475.42 323.861C475.42 323.918 475.439 323.974 475.477 324.012C477.041 325.651 478.398 327.234 479.886 328.949C479.924 328.987 479.98 329.024 480.037 329.024C480.093 329.024 480.15 329.024 480.206 328.968L618.548 200.575V200.594ZM472.481 320.922C473.329 321.77 474.026 322.486 474.836 323.353C474.874 323.39 474.931 323.428 474.987 323.428C475.044 323.428 475.1 323.409 475.138 323.353L535.773 260.344C535.773 260.344 535.829 260.249 535.829 260.193C535.829 260.136 535.81 260.08 535.754 260.042L533.135 257.536C533.135 257.536 532.909 257.461 532.833 257.536L472.443 320.602C472.443 320.602 472.368 320.828 472.443 320.903L472.481 320.922ZM474.874 529.527C474.874 529.527 474.818 529.621 474.818 529.677C474.818 529.734 474.855 529.79 474.893 529.828L545.232 592.366C545.232 592.366 545.458 592.442 545.533 592.366L547.926 589.672C547.926 589.672 547.983 589.577 547.983 589.521C547.983 589.464 547.945 589.408 547.907 589.37L477.663 526.926C477.663 526.926 477.437 526.851 477.361 526.926C476.551 527.812 475.703 528.679 474.874 529.545V529.527ZM519.116 196.468C519.116 196.468 519.154 196.336 519.135 196.279C519.116 196.223 519.06 196.166 519.003 196.147C516.742 195.45 514.537 194.697 512.408 193.849C512.314 193.811 512.201 193.849 512.144 193.943L445.536 299.347C445.536 299.347 445.499 299.46 445.517 299.517C445.517 299.574 445.574 299.63 445.612 299.649C447.534 300.855 449.437 302.08 451.321 303.38C451.378 303.417 451.434 303.417 451.491 303.417C451.547 303.417 451.604 303.38 451.622 303.323L519.135 196.487L519.116 196.468ZM465.698 314.497C465.698 314.497 465.811 314.459 465.848 314.421L520.435 246.57C520.435 246.57 520.492 246.344 520.397 246.268L517.59 244.007C517.59 244.007 517.496 243.951 517.42 243.97C517.364 243.97 517.307 244.007 517.27 244.045L462.758 311.821C462.758 311.821 462.702 312.047 462.796 312.123C463.719 312.895 464.624 313.687 465.528 314.478C465.566 314.516 465.622 314.534 465.698 314.534V314.497ZM544.572 202.234C544.572 202.234 544.629 202.083 544.591 202.007C544.553 201.932 544.497 201.894 544.403 201.876C541.727 201.649 539.108 201.348 536.583 200.915C536.508 200.915 536.413 200.915 536.376 200.99L456.163 306.526C456.163 306.526 456.107 306.639 456.126 306.696C456.126 306.753 456.163 306.809 456.22 306.847C458.048 308.203 459.838 309.598 461.59 311.049C461.628 311.086 461.703 311.105 461.76 311.105C461.816 311.105 461.873 311.067 461.91 311.03L544.591 202.252L544.572 202.234ZM500.707 231.778C500.707 231.778 500.594 231.816 500.575 231.873L452.301 303.813C452.225 303.907 452.263 304.039 452.357 304.115C453.337 304.793 454.336 305.471 455.316 306.187C455.372 306.225 455.429 306.244 455.485 306.225C455.542 306.225 455.598 306.187 455.636 306.131L503.948 234.134C504.023 234.04 503.986 233.889 503.891 233.832L500.895 231.816C500.895 231.816 500.782 231.778 500.726 231.778H500.707ZM456.201 546.146C456.201 546.146 456.126 546.24 456.107 546.296C456.088 546.353 456.107 546.409 456.145 546.466L514.895 620.423C514.895 620.423 514.99 620.498 515.046 620.498C515.103 620.498 515.159 620.498 515.216 620.46L518.042 618.218C518.136 618.143 518.155 618.011 518.08 617.917L459.348 543.979C459.348 543.979 459.141 543.866 459.046 543.941C458.104 544.695 457.162 545.449 456.201 546.165V546.146ZM512.144 460.695C511.391 463.936 510.543 467.139 509.563 470.324C509.563 470.38 509.563 470.437 509.563 470.493C509.563 470.55 509.638 470.587 509.695 470.606L569.614 487.037C569.614 487.037 569.746 487.037 569.802 486.999C569.859 486.962 569.896 486.886 569.878 486.83C569.84 484.474 569.802 482.119 569.802 479.726C569.802 479.632 569.727 479.538 569.633 479.519L533.493 469.608C533.38 469.57 533.304 469.457 533.342 469.344C533.38 469.231 533.493 469.155 533.606 469.174L569.576 476.787C569.576 476.787 569.708 476.787 569.765 476.749C569.821 476.711 569.84 476.655 569.84 476.579C569.84 475.355 569.84 474.13 569.878 472.886C569.878 472.773 569.802 472.698 569.708 472.679L512.389 460.544C512.276 460.526 512.163 460.601 512.126 460.714L512.144 460.695ZM514.537 448.221C514.047 451.481 513.482 454.722 512.785 457.925C512.785 457.982 512.785 458.038 512.823 458.095C512.86 458.151 512.898 458.17 512.973 458.189L569.746 468.59C569.746 468.59 569.878 468.59 569.915 468.553C569.972 468.515 569.991 468.458 569.991 468.383C570.047 466.103 570.141 463.804 570.236 461.487C570.236 461.374 570.16 461.279 570.066 461.26L538.411 455.457C538.298 455.438 538.222 455.325 538.241 455.212C538.26 455.099 538.373 455.005 538.486 455.024L570.123 458.905C570.123 458.905 570.236 458.905 570.292 458.849C570.349 458.792 570.367 458.754 570.367 458.698C570.424 457.511 570.537 456.286 570.612 455.08C570.612 454.967 570.537 454.873 570.424 454.854L514.82 448.033C514.707 448.033 514.594 448.108 514.575 448.221H514.537ZM515.894 435.559C515.687 438.819 515.348 442.079 514.933 445.301C514.933 445.357 514.933 445.414 514.971 445.471C515.008 445.508 515.065 445.546 515.121 445.546L570.631 450.822C570.631 450.822 570.744 450.822 570.801 450.765C570.839 450.728 570.876 450.671 570.876 450.615C571.046 448.372 571.215 446.092 571.423 443.812C571.423 443.699 571.347 443.586 571.234 443.567L541.482 440.741C541.369 440.741 541.275 440.628 541.294 440.515C541.294 440.402 541.407 440.308 541.52 440.308L571.46 441.382C571.573 441.382 571.668 441.306 571.686 441.193C571.799 439.987 571.894 438.8 572.026 437.594C572.026 437.538 572.026 437.481 571.969 437.425C571.931 437.387 571.875 437.349 571.818 437.349L516.139 435.352C516.026 435.352 515.913 435.446 515.913 435.559H515.894ZM578.357 571.828L498.634 515.753C498.54 515.677 498.521 515.546 498.578 515.451C498.634 515.357 498.766 515.319 498.879 515.395L570.311 559.58C570.311 559.58 570.424 559.618 570.481 559.599C570.537 559.599 570.594 559.543 570.612 559.505L572.516 556.434C572.572 556.339 572.553 556.189 572.44 556.132L492.887 506.916C492.793 506.859 492.661 506.878 492.586 506.991C490.664 510.006 488.648 512.964 486.519 515.828C486.481 515.885 486.462 515.941 486.481 515.998C486.481 516.054 486.519 516.111 486.575 516.148L579.487 581.494C579.487 581.494 579.657 581.551 579.732 581.494C579.808 581.437 579.845 581.362 579.826 581.268C579.393 578.215 578.941 575.125 578.47 571.96C578.47 571.903 578.432 571.847 578.376 571.809L578.357 571.828ZM515.423 409.764C515.31 409.764 515.216 409.896 515.234 410.009C515.593 413.25 515.875 416.491 516.007 419.732C516.007 419.788 516.045 419.845 516.082 419.883C516.12 419.92 516.177 419.939 516.252 419.939L575.059 415.341C575.153 415.341 575.248 415.266 575.248 415.172C575.7 412.817 576.152 410.499 576.661 408.219C576.661 408.144 576.661 408.087 576.604 408.031C576.567 407.974 576.491 407.955 576.416 407.955L541.915 410.65C541.802 410.65 541.689 410.574 541.689 410.461C541.689 410.348 541.765 410.235 541.878 410.216L577.17 405.355C577.17 405.355 577.339 405.28 577.358 405.185C577.66 403.923 577.942 402.661 578.262 401.417C578.262 401.342 578.262 401.266 578.206 401.21C578.149 401.153 578.093 401.134 578.018 401.134L515.423 409.745V409.764ZM483.033 221.095C483.033 221.095 482.939 221.151 482.901 221.208L441.165 296.766C441.108 296.879 441.146 297.011 441.24 297.067C442.277 297.67 443.332 298.255 444.368 298.876C444.425 298.914 444.481 298.914 444.538 298.895C444.594 298.895 444.651 298.839 444.67 298.782L486.443 223.149C486.5 223.036 486.462 222.904 486.349 222.847L483.184 221.095C483.184 221.095 483.07 221.057 483.014 221.095H483.033ZM574.475 544.13C574.475 544.13 574.419 543.998 574.362 543.96L509.318 506.143C509.224 506.087 509.186 505.955 509.243 505.842C509.299 505.729 509.431 505.691 509.525 505.747L573.345 537.968C573.345 537.968 573.495 538.006 573.571 537.968C573.646 537.93 573.665 537.836 573.665 537.761C573.495 536.348 573.326 534.897 573.175 533.465C573.175 533.389 573.118 533.333 573.062 533.295L499.218 496.006C499.105 495.949 498.974 496.006 498.936 496.1C497.315 499.19 495.563 502.224 493.716 505.201C493.679 505.258 493.679 505.314 493.698 505.371C493.698 505.427 493.754 505.484 493.792 505.503L575.342 552.91C575.342 552.91 575.511 552.948 575.568 552.91C575.643 552.872 575.681 552.778 575.662 552.703C575.267 549.895 574.871 547.031 574.494 544.13H574.475ZM651.296 212.032C651.296 212.032 651.371 211.937 651.371 211.862C651.371 211.787 651.352 211.73 651.296 211.692C649.675 210.355 647.678 208.998 645.247 207.698C645.172 207.66 645.078 207.66 645.002 207.717L492.002 326.895C492.002 326.895 491.776 326.952 491.7 326.857C491.625 326.763 491.644 326.631 491.719 326.556L549.886 275.455C549.886 275.455 549.961 275.361 549.961 275.304C549.961 275.248 549.961 275.191 549.905 275.154L547.512 272.44C547.512 272.44 547.285 272.346 547.21 272.422L481.299 330.306C481.299 330.306 481.205 330.513 481.28 330.607C483.56 333.32 485.727 336.147 487.819 339.048C487.856 339.105 487.913 339.124 487.97 339.143C488.026 339.143 488.083 339.143 488.139 339.105L651.258 212.032H651.296ZM508.715 472.886C507.66 476.089 506.51 479.255 505.248 482.383C505.229 482.439 505.229 482.496 505.248 482.552C505.267 482.609 505.323 482.647 505.38 482.665L570.424 506.69C570.424 506.69 570.575 506.69 570.631 506.652C570.688 506.614 570.726 506.539 570.726 506.463C570.575 504.014 570.424 501.546 570.311 499.04C570.311 498.945 570.254 498.87 570.16 498.851L526.954 482.892C526.841 482.854 526.785 482.722 526.823 482.609C526.86 482.496 526.973 482.439 527.086 482.477L569.859 495.478C569.859 495.478 569.991 495.478 570.047 495.441C570.104 495.403 570.141 495.328 570.123 495.252C570.066 493.971 570.009 492.727 569.972 491.427C569.972 491.333 569.915 491.258 569.821 491.22L508.979 472.736C508.866 472.698 508.753 472.754 508.715 472.867V472.886ZM516.101 422.784C516.177 426.044 516.139 429.304 516.007 432.545C516.007 432.601 516.026 432.658 516.064 432.695C516.101 432.733 516.158 432.771 516.214 432.771L572.271 433.242C572.384 433.242 572.478 433.166 572.497 433.053C572.779 430.755 573.062 428.475 573.401 426.232C573.401 426.176 573.401 426.1 573.345 426.063C573.307 426.006 573.25 425.987 573.175 425.987L542.631 425.724C542.518 425.724 542.424 425.629 542.424 425.516C542.424 425.403 542.518 425.309 542.631 425.29L573.59 423.726C573.684 423.726 573.778 423.651 573.797 423.538C573.985 422.313 574.192 421.107 574.4 419.883C574.4 419.826 574.4 419.751 574.343 419.694C574.287 419.638 574.23 419.619 574.174 419.619L516.309 422.539C516.195 422.539 516.101 422.652 516.101 422.765V422.784ZM499.953 494.046C499.953 494.046 499.916 494.159 499.953 494.216C499.972 494.272 500.01 494.31 500.066 494.348L572.252 528.34C572.252 528.34 572.402 528.358 572.478 528.321C572.534 528.283 572.572 528.189 572.572 528.113C572.289 525.513 572.026 522.875 571.781 520.2C571.781 520.124 571.724 520.049 571.649 520.03L518.833 495.158C518.72 495.101 518.683 494.988 518.72 494.875C518.777 494.762 518.89 494.725 519.003 494.762L571.065 515.64C571.065 515.64 571.215 515.64 571.272 515.621C571.328 515.583 571.366 515.508 571.366 515.432C571.253 514.095 571.14 512.757 571.027 511.4C571.027 511.325 570.97 511.249 570.895 511.212L504.607 484.644C504.494 484.606 504.362 484.644 504.325 484.757C502.987 487.904 501.517 491.013 499.972 494.065L499.953 494.046ZM579.223 200.726C579.223 200.726 579.299 200.557 579.261 200.481C579.223 200.406 579.129 200.349 579.054 200.368C576.849 200.557 574.701 200.726 572.572 200.858C571.423 200.952 570.292 201.046 569.124 201.141C569.067 201.141 569.011 201.178 568.973 201.216L466.131 314.685C466.131 314.685 466.075 314.779 466.075 314.836C466.075 314.892 466.112 314.949 466.15 314.987C467.846 316.494 469.504 318.039 471.143 319.641C471.181 319.678 471.237 319.697 471.294 319.697C471.35 319.697 471.407 319.678 471.445 319.622L579.205 200.707L579.223 200.726ZM261.672 320.131L198.606 261.06C198.606 261.06 198.437 260.984 198.361 261.022C196.194 262.096 193.971 263.189 191.653 264.301C191.616 264.301 191.597 264.338 191.597 264.376C191.597 264.414 191.597 264.432 191.635 264.47L193.952 266.656C193.952 266.656 194.028 266.75 194.028 266.807C194.028 266.863 194.009 266.92 193.971 266.957L192.595 268.408C192.595 268.408 192.539 268.502 192.539 268.559C192.539 268.615 192.577 268.672 192.614 268.71L256.66 325.369C256.66 325.369 256.886 325.444 256.961 325.369C258.506 323.692 260.07 322.053 261.691 320.451C261.728 320.413 261.747 320.357 261.747 320.3C261.747 320.244 261.728 320.187 261.672 320.149V320.131ZM252.872 329.665L177.88 270.707C177.88 270.707 177.729 270.65 177.653 270.669C175.242 271.706 172.83 272.723 170.456 273.684C170.38 273.722 170.324 273.778 170.324 273.854C170.324 273.929 170.343 274.004 170.399 274.061L180.574 282.05C180.574 282.05 180.649 282.144 180.649 282.201C180.649 282.257 180.649 282.314 180.593 282.37L179.688 283.482C179.688 283.482 179.632 283.595 179.632 283.652C179.632 283.708 179.67 283.765 179.726 283.802L248.294 335.355C248.388 335.431 248.52 335.412 248.595 335.318C249.99 333.509 251.403 331.756 252.891 330.004C252.929 329.966 252.948 329.891 252.948 329.835C252.948 329.778 252.91 329.721 252.872 329.684V329.665ZM244.921 339.915L153.837 280.241C153.837 280.241 153.705 280.204 153.648 280.222C150.954 281.221 148.278 282.201 145.659 283.143C145.584 283.162 145.527 283.237 145.508 283.331C145.489 283.426 145.527 283.501 145.602 283.539L168.628 298.613C168.628 298.613 168.703 298.688 168.722 298.744C168.722 298.801 168.722 298.858 168.684 298.914L168.213 299.611C168.213 299.611 168.176 299.724 168.176 299.781C168.176 299.837 168.213 299.894 168.27 299.913L240.87 345.945C240.964 346.001 241.115 345.982 241.171 345.869C242.396 343.947 243.658 342.063 244.977 340.217C245.015 340.16 245.015 340.104 245.015 340.047C245.015 339.991 244.977 339.934 244.921 339.896V339.915ZM281.664 303.606L237.026 239.692C236.951 239.598 236.819 239.56 236.724 239.636C234.181 241.332 231.467 243.046 228.566 244.78C228.509 244.817 228.471 244.874 228.471 244.93C228.471 244.987 228.472 245.062 228.509 245.1L275.785 307.883C275.785 307.883 275.879 307.958 275.936 307.977C275.992 307.977 276.049 307.977 276.105 307.94C277.914 306.564 279.742 305.226 281.626 303.926C281.683 303.888 281.701 303.851 281.72 303.794C281.72 303.738 281.72 303.681 281.683 303.625L281.664 303.606ZM271.3 311.407L218.579 250.715C218.579 250.715 218.391 250.621 218.315 250.659C215.96 251.94 213.473 253.278 210.91 254.615C210.854 254.653 210.816 254.71 210.797 254.766C210.778 254.823 210.797 254.898 210.854 254.955L265.836 316.174C265.836 316.174 265.93 316.249 265.987 316.249C266.043 316.249 266.1 316.249 266.138 316.193C267.815 314.666 269.529 313.178 271.281 311.708C271.319 311.67 271.357 311.614 271.357 311.557C271.357 311.501 271.357 311.444 271.3 311.388V311.407ZM440.713 296.502L497.655 186.387C497.711 186.293 497.673 186.161 497.579 186.104C495.676 184.823 493.811 183.485 492.021 182.034C491.964 181.997 491.908 181.978 491.832 181.997C491.776 181.997 491.719 182.053 491.681 182.11L434.287 293.092C434.287 293.092 434.25 293.205 434.287 293.261C434.287 293.318 434.344 293.356 434.4 293.393C436.435 294.43 438.433 295.485 440.411 296.615C440.468 296.653 440.524 296.653 440.581 296.634C440.637 296.634 440.694 296.578 440.713 296.521V296.502ZM219.804 399.25L49.5437 373.813C49.4307 373.813 49.3176 373.869 49.2988 374.001C48.9785 376.187 48.677 378.467 48.4132 380.784C48.4132 380.897 48.4886 381.011 48.6016 381.029L218.636 406.429C218.636 406.429 218.749 406.429 218.805 406.391C218.843 406.354 218.881 406.297 218.9 406.241C219.22 403.979 219.578 401.737 219.992 399.514C219.992 399.457 219.992 399.401 219.955 399.344C219.917 399.288 219.86 399.269 219.804 399.25ZM292.611 296.709L252.797 229.291L252.156 228.33C252.156 228.33 252.062 228.236 252.006 228.236C251.949 228.236 251.874 228.236 251.836 228.293C249.669 230.158 247.389 232.005 244.94 233.851C244.846 233.926 244.827 234.04 244.883 234.134L286.393 300.478C286.393 300.478 286.469 300.553 286.525 300.572C286.582 300.572 286.638 300.572 286.695 300.535C288.617 299.329 290.557 298.142 292.536 297.011C292.592 296.973 292.63 296.936 292.63 296.879C292.63 296.823 292.63 296.766 292.611 296.709ZM226.719 374.246L71.0806 322.505C71.0806 322.505 70.9111 322.505 70.8545 322.561C69.2529 324.37 67.7267 326.254 66.2758 328.252C66.2381 328.308 66.2193 328.384 66.2381 328.44C66.257 328.497 66.3135 328.553 66.37 328.572L224.345 381.086C224.345 381.086 224.458 381.086 224.515 381.086C224.571 381.067 224.609 381.011 224.628 380.954C225.325 378.787 226.06 376.639 226.851 374.51C226.87 374.453 226.851 374.397 226.851 374.34C226.832 374.284 226.776 374.246 226.719 374.227V374.246ZM231.769 362.281L95.67 303.568C95.67 303.568 95.5381 303.549 95.4816 303.568C92.9755 304.944 90.5449 306.376 88.2084 307.883C88.133 307.921 88.0954 307.996 88.1142 308.09C88.133 308.185 88.1707 308.241 88.2461 308.279L228.829 368.933C228.829 368.933 228.943 368.951 228.999 368.933C229.056 368.914 229.093 368.876 229.112 368.819C229.998 366.728 230.921 364.636 231.882 362.583C231.901 362.526 231.901 362.47 231.882 362.413C231.863 362.357 231.825 362.319 231.769 362.281ZM237.855 350.806L125.686 290.435C125.686 290.435 125.573 290.397 125.498 290.435C122.634 291.509 119.826 292.583 117.075 293.657C117 293.695 116.943 293.77 116.943 293.845C116.943 293.921 116.981 294.015 117.056 294.053L234.35 357.156C234.35 357.156 234.463 357.194 234.52 357.156C234.576 357.118 234.614 357.099 234.652 357.043C235.707 355.027 236.8 353.048 237.949 351.07C237.987 351.013 237.987 350.957 237.968 350.9C237.968 350.844 237.912 350.787 237.855 350.768V350.806ZM222.725 386.607L56.4401 346.849C56.327 346.83 56.2328 346.887 56.1951 346.981C55.3849 349.054 54.6312 351.221 53.9152 353.463C53.9152 353.519 53.9152 353.576 53.9152 353.632C53.9529 353.689 53.9905 353.727 54.0471 353.746L220.916 393.635C220.916 393.635 221.029 393.635 221.085 393.616C221.142 393.578 221.161 393.541 221.179 393.484C221.688 391.261 222.235 389.056 222.838 386.871C222.838 386.814 222.838 386.757 222.819 386.701C222.781 386.644 222.743 386.607 222.687 386.607H222.725ZM411.978 250.583L445.894 97.6015C445.894 97.6015 445.894 97.5073 445.894 97.4507C444.312 94.2098 442.635 91.2139 440.863 88.5006C440.807 88.4252 440.732 88.3875 440.637 88.4064C440.543 88.4064 440.487 88.4817 440.468 88.5759L397.978 280.241C397.978 280.241 397.978 280.354 398.016 280.411C398.053 280.467 398.091 280.486 398.148 280.505C401.502 281.221 404.818 282.088 408.115 283.03C408.172 283.03 408.228 283.03 408.285 283.011C408.341 282.992 408.379 282.936 408.379 282.879L429.2 199.841C429.2 199.841 429.2 199.727 429.181 199.671C429.143 199.614 429.106 199.577 429.049 199.577L425.544 198.691C425.431 198.653 425.318 198.729 425.281 198.842L412.298 250.64C412.298 250.64 412.204 250.772 412.129 250.753C412.053 250.753 411.997 250.659 412.016 250.583H411.978ZM304.275 290.661L267.588 214.085C267.532 213.972 267.4 213.935 267.306 213.991L264.8 215.178C264.8 215.178 264.8 215.178 264.781 215.178C263.273 216.968 261.728 218.702 260.108 220.398C260.051 220.473 260.033 220.567 260.07 220.643L297.567 293.977C297.567 293.977 297.642 294.072 297.699 294.09C297.755 294.109 297.812 294.09 297.868 294.09C299.79 293.092 301.731 292.112 303.709 291.189C303.86 291.113 304.011 291.057 304.162 290.981C304.218 290.963 304.256 290.906 304.275 290.849C304.293 290.793 304.275 290.736 304.275 290.68V290.661ZM398.562 232.984L420.099 70.4684C420.099 70.3741 420.061 70.2988 419.967 70.2422C419.421 69.9031 414.22 68.1696 413.316 68C413.259 68 413.203 68 413.146 68.0377C413.09 68.0754 413.071 68.1319 413.052 68.1884L385.222 278.093C385.222 278.093 385.222 278.206 385.259 278.263C385.297 278.3 385.354 278.338 385.41 278.338C388.689 278.753 391.93 279.261 395.171 279.902C395.227 279.902 395.284 279.902 395.34 279.864C395.397 279.827 395.415 279.77 395.434 279.714L408.982 195.413C408.982 195.413 408.982 195.299 408.944 195.243C408.907 195.205 408.85 195.168 408.794 195.149L405.232 194.583C405.119 194.565 405.006 194.64 404.987 194.772L398.845 233.003C398.845 233.003 398.751 233.135 398.675 233.116C398.6 233.116 398.543 233.041 398.543 232.947L398.562 232.984ZM464.341 212.088L429.558 290.774C429.501 290.887 429.558 291.019 429.671 291.057C430.764 291.565 431.687 292.018 432.761 292.545C432.818 292.564 432.874 292.583 432.931 292.545C432.987 292.508 433.025 292.489 433.063 292.432L468.053 213.727C468.053 213.727 468.072 213.614 468.053 213.558C468.034 213.501 467.996 213.464 467.94 213.445L464.643 211.975C464.529 211.919 464.398 211.975 464.36 212.088H464.341ZM429.125 290.548L479.208 169.391C479.208 169.391 479.208 169.24 479.17 169.165C477.531 167.149 475.967 165.02 474.422 162.796C474.384 162.721 474.29 162.702 474.215 162.702C474.139 162.702 474.064 162.759 474.045 162.834L422.567 287.759C422.567 287.759 422.549 287.872 422.567 287.929C422.586 287.985 422.624 288.023 422.68 288.042C424.791 288.89 426.75 289.719 428.823 290.661C428.88 290.68 428.936 290.68 428.993 290.661C429.049 290.642 429.087 290.605 429.106 290.548H429.125ZM422.756 268.502L462.626 141.655C462.626 141.655 462.626 141.542 462.626 141.504C461.213 138.395 459.857 135.154 458.538 131.782C458.5 131.687 458.425 131.631 458.33 131.65C458.236 131.65 458.161 131.706 458.123 131.8L410.452 283.463C410.452 283.463 410.452 283.576 410.452 283.633C410.471 283.689 410.527 283.727 410.584 283.746C413.975 284.782 417.329 285.969 420.645 287.251C420.702 287.269 420.759 287.269 420.815 287.251C420.872 287.232 420.909 287.175 420.928 287.119L448.909 205.945C448.909 205.945 448.909 205.832 448.909 205.776C448.89 205.719 448.834 205.682 448.777 205.663L445.367 204.495C445.254 204.457 445.122 204.513 445.084 204.627L423.02 268.615C423.02 268.615 422.907 268.728 422.831 268.71C422.756 268.691 422.718 268.597 422.737 268.521L422.756 268.502ZM355.677 277.339L347.217 192.869C347.217 192.869 347.179 192.756 347.141 192.718C347.103 192.68 347.047 192.662 346.99 192.662L343.241 193.038C343.241 193.038 343.184 193.076 343.184 193.095C343.184 193.133 343.165 193.151 343.128 193.151C343.09 193.151 343.071 193.151 343.071 193.095L333.311 116.84C333.311 116.84 333.235 116.689 333.16 116.651C333.085 116.632 332.99 116.651 332.934 116.727C330.974 119.157 328.996 121.682 327.017 124.282C326.98 124.32 326.961 124.377 326.98 124.433L346.651 278.225C346.651 278.225 346.689 278.338 346.727 278.376C346.764 278.413 346.84 278.432 346.896 278.413C349.76 278.037 352.624 277.754 355.507 277.528C355.564 277.528 355.62 277.49 355.658 277.453C355.696 277.415 355.714 277.358 355.714 277.283L355.677 277.339ZM316.635 285.63L286.845 206.209C286.845 206.209 286.789 206.115 286.732 206.096C286.676 206.077 286.619 206.077 286.563 206.096L284.226 206.982C284.113 207.019 283.981 206.982 283.944 206.85L279.591 195.62C279.591 195.62 279.497 195.488 279.403 195.488C279.327 195.488 279.233 195.526 279.195 195.582C277.575 198.013 276.011 200.33 274.447 202.554C274.409 202.61 274.39 202.686 274.428 202.761L309.306 288.494C309.306 288.494 309.362 288.588 309.419 288.607C309.475 288.626 309.532 288.626 309.588 288.607C311.887 287.646 314.186 286.761 316.503 285.932C316.56 285.913 316.598 285.875 316.635 285.819C316.654 285.762 316.654 285.706 316.635 285.649V285.63ZM306.46 199.897C306.46 199.897 306.347 199.859 306.291 199.878L303.502 200.67C303.389 200.707 303.276 200.632 303.238 200.519L294.91 171.86C294.91 171.86 294.816 171.709 294.74 171.709C294.665 171.709 294.571 171.728 294.533 171.803C292.724 174.629 290.991 177.324 289.351 179.905C289.314 179.962 289.314 180.018 289.333 180.094L321.478 284.029C321.478 284.029 321.534 284.123 321.591 284.16C321.647 284.179 321.704 284.198 321.76 284.16C324.248 283.369 326.754 282.634 329.279 281.975C329.335 281.975 329.392 281.918 329.41 281.88C329.429 281.843 329.448 281.767 329.429 281.711L306.592 200.01C306.592 200.01 306.536 199.916 306.498 199.878L306.46 199.897ZM342.431 278.941L326.735 195.563C326.735 195.563 326.697 195.45 326.641 195.431C326.584 195.413 326.528 195.394 326.471 195.394L323.211 196.016C323.098 196.034 322.985 195.959 322.966 195.846L312.546 145.235C312.546 145.235 312.471 145.084 312.377 145.066C312.283 145.066 312.207 145.066 312.151 145.16C310.172 148.062 308.25 150.888 306.441 153.582C306.404 153.639 306.404 153.695 306.404 153.752L333.914 280.618C333.914 280.618 333.951 280.731 334.008 280.75C334.065 280.788 334.121 280.788 334.178 280.788C336.872 280.185 339.566 279.657 342.261 279.224C342.317 279.224 342.374 279.186 342.412 279.13C342.449 279.073 342.449 279.016 342.449 278.96L342.431 278.941ZM459.819 543.583L567.993 672.541C567.993 672.541 568.106 672.616 568.163 672.616C568.238 672.616 568.295 672.578 568.332 672.522C569.783 670.581 571.121 668.622 572.327 666.624C572.384 666.549 572.365 666.436 572.308 666.379L465.283 539.004C465.283 539.004 465.189 538.929 465.132 538.929C465.076 538.929 465.019 538.929 464.963 538.986C463.248 540.474 461.628 541.85 459.838 543.263C459.8 543.3 459.762 543.357 459.762 543.414C459.762 543.47 459.762 543.527 459.819 543.583ZM262.934 646.651L249.518 676.403C249.518 676.403 249.5 676.554 249.518 676.611C251.026 678.947 252.59 681.02 254.229 682.848C254.286 682.904 254.361 682.923 254.418 682.923C254.474 682.923 254.549 682.866 254.587 682.791L308.156 564.046C308.156 564.046 308.175 563.933 308.156 563.876C308.137 563.82 308.1 563.782 308.043 563.763C305.952 562.859 303.879 561.917 301.825 560.937C301.769 560.918 301.712 560.899 301.656 560.937C301.599 560.956 301.561 560.994 301.524 561.05L261.333 645.445C261.276 645.558 261.333 645.69 261.427 645.728L262.802 646.387C262.915 646.444 262.953 646.557 262.915 646.67L262.934 646.651ZM211.57 580.458C211.57 580.458 211.494 580.665 211.57 580.74C213.002 582.512 214.396 584.377 215.734 586.355C215.772 586.412 215.828 586.45 215.904 586.45C215.96 586.45 216.035 586.45 216.073 586.393L264.913 535.933C264.913 535.933 264.969 535.839 264.969 535.782C264.969 535.726 264.95 535.669 264.894 535.632C263.236 534.086 261.615 532.504 260.014 530.864C259.976 530.827 259.92 530.808 259.863 530.808C259.806 530.808 259.75 530.827 259.712 530.883L211.57 580.495V580.458ZM381.623 73.8412L372.371 277.038C372.371 277.038 372.371 277.151 372.428 277.189C372.465 277.226 372.522 277.264 372.578 277.264C375.744 277.396 378.891 277.584 382.037 277.905C382.094 277.905 382.15 277.905 382.207 277.848C382.245 277.811 382.282 277.754 382.282 277.697L388.481 192.756C388.481 192.756 388.481 192.643 388.425 192.605C388.387 192.567 388.331 192.53 388.274 192.53L384.675 192.266C384.562 192.266 384.449 192.341 384.449 192.473L382.716 216.177C382.716 216.177 382.64 216.309 382.565 216.309C382.49 216.309 382.433 216.233 382.433 216.158L389.047 70.8264C389.047 70.8264 389.009 70.6756 388.953 70.6379C388.896 70.6003 388.821 70.5814 388.745 70.6003C386.446 71.4482 384.11 72.4468 381.755 73.6339C381.679 73.6716 381.642 73.7469 381.642 73.8223L381.623 73.8412ZM282.248 655.055L269.077 692.589C269.077 692.589 269.077 692.702 269.077 692.759C269.096 692.815 269.152 692.853 269.209 692.872C271.432 693.569 273.693 694.04 276.011 694.247C276.105 694.247 276.199 694.191 276.237 694.096L320.272 568.568C320.272 568.568 320.272 568.455 320.272 568.399C320.253 568.342 320.196 568.304 320.14 568.286C317.973 567.57 315.825 566.816 313.696 566.006C313.639 565.987 313.583 566.006 313.526 566.006C313.47 566.024 313.432 566.081 313.413 566.119L280.213 653.811C280.175 653.924 280.213 654.056 280.345 654.094L282.116 654.772C282.229 654.81 282.285 654.942 282.248 655.055ZM222.046 596.87C222.046 596.87 221.99 597.039 222.027 597.114C223.214 599.451 224.364 601.919 225.457 604.482C225.494 604.557 225.551 604.595 225.626 604.614C225.702 604.614 225.777 604.595 225.834 604.538L274.786 544.337C274.786 544.337 274.843 544.224 274.843 544.167C274.843 544.111 274.805 544.054 274.767 544.016C272.977 542.622 271.225 541.171 269.491 539.683C269.454 539.645 269.397 539.626 269.322 539.626C269.265 539.626 269.209 539.664 269.171 539.702L222.065 596.851L222.046 596.87ZM238.119 647.876C238.119 647.876 238.081 647.989 238.1 648.027C238.929 651.324 239.796 654.414 240.738 657.316C240.757 657.391 240.832 657.448 240.926 657.467C241.021 657.486 241.096 657.429 241.134 657.354L296.474 558.431C296.474 558.431 296.512 558.318 296.493 558.261C296.493 558.205 296.436 558.167 296.38 558.129C294.382 557.055 292.385 555.944 290.425 554.775C290.369 554.738 290.312 554.738 290.256 554.757C290.199 554.757 290.143 554.813 290.124 554.851L243.263 635.346C243.206 635.44 243.244 635.591 243.338 635.647L244.337 636.25C244.431 636.307 244.469 636.439 244.412 636.552L238.081 647.857L238.119 647.876ZM660.83 242.293C661.32 239.447 661.489 236.602 661.32 233.776C661.32 233.7 661.263 233.625 661.207 233.587C661.131 233.55 661.056 233.55 660.981 233.587L505.455 334.225C505.361 334.281 505.229 334.262 505.154 334.168C505.078 334.074 505.116 333.942 505.21 333.867L562.68 291.66C562.68 291.66 562.755 291.566 562.774 291.509C562.774 291.452 562.774 291.396 562.736 291.339L560.588 288.419C560.513 288.325 560.381 288.306 560.287 288.381L489.27 340.631C489.175 340.707 489.157 340.838 489.213 340.933C491.192 343.778 493.113 346.68 494.922 349.694C494.96 349.751 494.998 349.789 495.054 349.789C495.111 349.789 495.167 349.789 495.224 349.751L660.736 242.387C660.736 242.387 660.83 242.293 660.83 242.236V242.293ZM362.611 575.954L360.915 663.327C360.915 663.327 360.934 663.459 360.99 663.496C361.047 663.534 361.103 663.553 361.179 663.534C364.702 662.799 368.226 662.215 371.712 661.857C371.825 661.857 371.9 661.744 371.9 661.631L371.203 575.954C371.203 575.954 371.184 575.841 371.128 575.804C371.071 575.766 371.033 575.747 370.977 575.747C368.264 575.823 365.531 575.804 362.818 575.747C362.762 575.747 362.705 575.766 362.667 575.804C362.63 575.841 362.592 575.898 362.592 575.954H362.611ZM350.137 575.107L340.151 668.622C340.151 668.622 340.151 668.735 340.207 668.791C340.245 668.829 340.301 668.866 340.358 668.866L342.223 669.055C342.223 669.055 342.299 669.055 342.317 669.055C345.2 668 348.14 667.02 351.079 666.134C351.173 666.115 351.23 666.04 351.23 665.946L358.315 575.804C358.315 575.804 358.315 575.691 358.258 575.634C358.22 575.596 358.164 575.559 358.107 575.559C355.526 575.408 352.963 575.182 350.401 574.899C350.344 574.899 350.288 574.899 350.231 574.937C350.175 574.975 350.156 575.031 350.156 575.088L350.137 575.107ZM302.296 661.386L294.74 690.987C294.74 690.987 294.74 691.157 294.816 691.214C294.872 691.27 294.966 691.289 295.042 691.251C297.567 690.29 300.205 689.179 302.956 687.916C303.012 687.897 303.069 687.841 303.069 687.765L332.746 572.054C332.746 572.054 332.746 571.941 332.727 571.884C332.689 571.828 332.651 571.79 332.595 571.79C330.334 571.263 328.091 570.679 325.868 570.038C325.755 570 325.623 570.076 325.604 570.189L299.809 660.218C299.809 660.218 299.809 660.331 299.828 660.387C299.847 660.444 299.903 660.482 299.96 660.5L302.145 661.122C302.258 661.16 302.334 661.273 302.296 661.386ZM337.758 573.166L319.763 665.286C319.763 665.286 319.763 665.399 319.801 665.456C319.838 665.512 319.876 665.531 319.933 665.55L322.571 666.059C322.684 666.078 322.759 666.191 322.74 666.304L320.818 678.212C320.818 678.212 320.837 678.382 320.912 678.42C320.988 678.476 321.063 678.476 321.139 678.42C323.569 677.138 326.094 675.895 328.676 674.689C328.732 674.651 328.789 674.595 328.807 674.519L345.445 574.447C345.445 574.447 345.445 574.334 345.408 574.277C345.37 574.221 345.313 574.202 345.257 574.183C342.826 573.825 340.414 573.411 338.021 572.94C337.965 572.94 337.908 572.94 337.852 572.977C337.795 573.015 337.776 573.053 337.758 573.109V573.166ZM230.45 617.747C230.45 617.747 230.393 617.879 230.412 617.935C231.43 621.101 232.391 624.379 233.314 627.809C233.333 627.884 233.408 627.959 233.484 627.959C233.559 627.959 233.653 627.941 233.71 627.865L285.3 551.874C285.3 551.874 285.338 551.761 285.338 551.704C285.338 551.648 285.3 551.591 285.244 551.572C283.341 550.329 281.456 549.047 279.61 547.728C279.553 547.691 279.497 547.672 279.44 547.691C279.384 547.691 279.327 547.728 279.29 547.785L230.431 617.766L230.45 617.747ZM51.4845 456.644C51.4845 456.644 51.428 456.757 51.4468 456.814C51.899 459.094 52.3889 461.336 52.9165 463.522C52.9354 463.635 53.0484 463.691 53.1615 463.691L218.447 445.301C218.447 445.301 218.56 445.263 218.598 445.226C218.636 445.188 218.655 445.113 218.636 445.056C218.353 442.795 218.127 440.534 217.939 438.273C217.939 438.216 217.901 438.16 217.863 438.122C217.826 438.084 217.769 438.065 217.694 438.065L129.624 447.091C129.511 447.091 129.417 447.204 129.436 447.317V447.656C129.473 447.769 129.379 447.882 129.266 447.882L51.6352 456.512C51.6352 456.512 51.5222 456.55 51.4845 456.606V456.644ZM58.7954 483.118C58.7954 483.118 58.7577 483.231 58.7954 483.306C59.6056 485.511 60.4347 487.678 61.3014 489.769C61.3391 489.863 61.4521 489.92 61.5464 489.901L220.671 458.114C220.671 458.114 220.784 458.076 220.803 458.02C220.84 457.963 220.84 457.907 220.84 457.85C220.35 455.627 219.936 453.384 219.559 451.142C219.559 451.086 219.521 451.029 219.465 450.991C219.408 450.954 219.352 450.954 219.295 450.954L131.904 467.516C131.791 467.535 131.716 467.648 131.734 467.761L131.81 468.213C131.81 468.326 131.753 468.439 131.64 468.458L58.9649 482.967C58.9649 482.967 58.8519 483.023 58.8142 483.08L58.7954 483.118ZM70.5719 507.801C70.5719 507.801 70.4588 507.877 70.4211 507.933C70.4023 507.99 70.4023 508.065 70.4211 508.122C71.6459 510.194 72.9272 512.21 74.2273 514.132C74.2838 514.208 74.3781 514.245 74.4723 514.227L223.949 470.682C223.949 470.682 224.044 470.625 224.081 470.569C224.119 470.512 224.119 470.456 224.081 470.399C223.403 468.213 222.781 466.028 222.216 463.823C222.216 463.767 222.159 463.71 222.122 463.691C222.065 463.653 222.009 463.653 221.952 463.672L135.71 486.98C135.597 487.018 135.522 487.131 135.559 487.244L135.88 488.525C135.917 488.639 135.842 488.752 135.729 488.789L70.5342 507.782L70.5719 507.801ZM47 408.577C47 408.69 47.0942 408.784 47.2073 408.803L217.43 419.355C217.43 419.355 217.543 419.355 217.581 419.298C217.618 419.242 217.656 419.204 217.656 419.148C217.769 416.868 217.939 414.607 218.146 412.346C218.146 412.289 218.146 412.232 218.089 412.176C218.033 412.119 217.995 412.101 217.939 412.101L47.3203 401.53C47.3203 401.53 47.2073 401.53 47.1507 401.586C47.1131 401.624 47.0754 401.681 47.0754 401.737C47.0188 403.979 47 406.241 47 408.577ZM47.8479 429.285C47.8479 429.285 47.7914 429.379 47.7914 429.454C47.961 431.753 48.1682 434.033 48.3943 436.275C48.3943 436.388 48.5074 436.483 48.6204 436.464L217.354 432.337C217.354 432.337 217.468 432.319 217.505 432.262C217.543 432.224 217.562 432.168 217.562 432.111C217.468 429.831 217.449 427.551 217.468 425.29C217.468 425.234 217.449 425.177 217.411 425.14C217.373 425.102 217.317 425.083 217.26 425.083L129.153 426.647C129.04 426.647 128.946 426.741 128.946 426.854V427.043C128.946 427.156 128.852 427.25 128.738 427.25L48.0363 429.228C48.0363 429.228 47.9233 429.247 47.8856 429.304L47.8479 429.285ZM197.739 567.494C197.739 567.494 197.664 567.607 197.664 567.664C197.664 567.739 197.702 567.796 197.758 567.833C199.643 569.133 201.47 570.547 203.241 572.092C203.317 572.167 203.449 572.167 203.524 572.092L255.774 526.7C255.774 526.7 255.85 526.606 255.85 526.55C255.85 526.493 255.85 526.436 255.793 526.399C254.286 524.722 252.797 522.988 251.346 521.236C251.309 521.198 251.252 521.161 251.195 521.161C251.139 521.161 251.082 521.161 251.026 521.217L197.721 567.532L197.739 567.494ZM87.3228 529.772C87.3228 529.772 87.2098 529.866 87.1909 529.922C87.1721 529.979 87.1909 530.073 87.2474 530.13C89.0563 531.957 90.884 533.691 92.7494 535.33C92.806 535.387 92.9002 535.405 92.9755 535.368L228.321 482.892C228.321 482.892 228.415 482.835 228.434 482.779C228.453 482.722 228.453 482.665 228.434 482.609C227.567 480.499 226.776 478.369 226.022 476.221C226.003 476.165 225.965 476.127 225.909 476.089C225.852 476.071 225.796 476.071 225.739 476.089L141.457 506.84C141.344 506.878 141.288 507.01 141.325 507.123L141.777 508.442C141.815 508.555 141.777 508.668 141.646 508.725L87.304 529.79L87.3228 529.772ZM177.672 558.525C177.672 558.525 177.578 558.657 177.578 558.751C177.578 558.827 177.653 558.902 177.748 558.921C180.517 559.618 183.193 560.485 185.775 561.502C185.85 561.521 185.925 561.502 185.982 561.483L247.54 516.695C247.54 516.695 247.615 516.601 247.634 516.544C247.634 516.488 247.634 516.431 247.597 516.375C246.24 514.566 244.921 512.719 243.621 510.835C243.583 510.778 243.527 510.76 243.47 510.741C243.414 510.722 243.357 510.741 243.3 510.778L177.672 558.525ZM142.437 556.434C142.437 556.434 142.324 556.584 142.343 556.679C142.362 556.773 142.456 556.829 142.55 556.848C145.301 556.999 148.014 556.999 150.709 556.811C152.574 556.697 154.383 556.641 156.173 556.603C156.211 556.603 156.248 556.603 156.286 556.566L240.21 505.974C240.21 505.974 240.305 505.898 240.305 505.842C240.305 505.785 240.305 505.729 240.286 505.672C239.08 503.75 237.93 501.791 236.8 499.793C236.762 499.737 236.724 499.699 236.668 499.699C236.611 499.699 236.555 499.699 236.498 499.718L157.605 544.167C157.492 544.224 157.454 544.356 157.53 544.469L158.604 546.447C158.66 546.541 158.623 546.673 158.528 546.73L142.456 556.415L142.437 556.434ZM110.329 547.182C110.329 547.182 110.216 547.295 110.216 547.37C110.216 547.446 110.254 547.521 110.329 547.559C112.967 548.953 115.624 550.197 118.281 551.271C118.337 551.29 118.413 551.29 118.451 551.271L233.766 494.687C233.766 494.687 233.86 494.612 233.879 494.555C233.879 494.499 233.879 494.442 233.879 494.385C233.069 492.803 232.259 491.201 231.486 489.581C231.279 489.128 231.109 488.695 230.902 488.243C230.883 488.186 230.827 488.149 230.77 488.13C230.714 488.111 230.657 488.13 230.601 488.13L148.843 526.097C148.73 526.154 148.693 526.267 148.73 526.38L149.352 527.774C149.409 527.887 149.352 528 149.258 528.057L110.329 547.163V547.182ZM352.059 95.7361L359.483 277.113C359.483 277.113 359.502 277.226 359.558 277.264C359.596 277.302 359.653 277.321 359.709 277.321C362.743 277.17 365.757 277.113 368.772 277.151C368.829 277.151 368.885 277.132 368.923 277.095C368.961 277.057 368.98 277 368.98 276.944L367.83 191.946C367.83 191.832 367.736 191.719 367.604 191.738L363.986 191.795C363.986 191.795 363.873 191.814 363.836 191.87C363.798 191.908 363.779 191.964 363.779 192.021L363.93 203.383C363.93 203.383 363.892 203.496 363.817 203.496C363.76 203.496 363.704 203.458 363.704 203.383L359.05 89.7442C359.05 89.7442 358.993 89.5934 358.918 89.5557C358.842 89.5181 358.748 89.5369 358.692 89.5934C356.506 91.4777 354.301 93.475 352.097 95.6042C352.059 95.6419 352.021 95.7172 352.021 95.7738L352.059 95.7361ZM509.601 382.122L596.238 351.767C596.238 351.767 596.332 351.711 596.37 351.654C597.84 348.639 599.328 345.719 600.855 342.855C600.892 342.779 600.892 342.685 600.836 342.61C600.779 342.534 600.685 342.515 600.591 342.553L529.8 367.331C529.687 367.369 529.574 367.331 529.517 367.199C529.461 367.067 529.517 366.973 529.63 366.916L590.133 341.573C590.246 341.536 590.303 341.404 590.246 341.291L588.852 337.956C588.852 337.956 588.795 337.861 588.739 337.843C588.682 337.824 588.626 337.824 588.569 337.843L506.152 372.286C506.039 372.324 505.983 372.456 506.039 372.569C507.245 375.697 508.338 378.825 509.337 381.99C509.337 382.047 509.393 382.085 509.45 382.122C509.506 382.141 509.563 382.16 509.619 382.122H509.601ZM375.16 575.634C375.16 575.634 375.103 575.728 375.103 575.785L380.831 661.179C380.831 661.292 380.926 661.386 381.039 661.386C382.263 661.386 383.469 661.443 384.675 661.518C384.732 661.518 384.807 661.499 384.845 661.461C384.883 661.424 384.92 661.348 384.901 661.292L384.449 654.264C384.449 654.151 384.525 654.037 384.656 654.037C384.769 654.037 384.883 654.113 384.901 654.226L385.73 661.424C385.73 661.518 385.825 661.612 385.938 661.612C388.029 661.782 390.083 662.046 392.099 662.422C392.175 662.422 392.231 662.422 392.288 662.366C392.344 662.328 392.363 662.253 392.363 662.177L384.11 575.012C384.11 575.012 384.072 574.899 384.035 574.862C383.997 574.824 383.922 574.805 383.865 574.805C381.02 575.125 378.175 575.37 375.329 575.54C375.273 575.54 375.216 575.578 375.179 575.615L375.16 575.634ZM505.305 370.025L613.404 321.318C613.404 321.318 613.479 321.28 613.498 321.242C615.797 317.625 618.095 314.139 620.394 310.766C620.451 310.691 620.451 310.578 620.394 310.502C620.338 310.427 620.225 310.408 620.13 310.446L524.26 354.48C524.147 354.537 524.015 354.48 523.977 354.367C523.921 354.254 523.977 354.122 524.072 354.085L582.954 325.463C582.954 325.463 583.048 325.388 583.067 325.331C583.086 325.275 583.067 325.218 583.067 325.162L581.447 321.94C581.39 321.826 581.258 321.789 581.145 321.845L501.63 361.791C501.517 361.848 501.48 361.98 501.536 362.074C501.743 362.507 501.969 362.922 502.177 363.374C503.194 365.541 504.136 367.727 505.041 369.931C505.06 369.988 505.116 370.025 505.154 370.044C505.191 370.063 505.267 370.063 505.323 370.044L505.305 370.025ZM500.556 359.643L637.051 286.987C637.051 286.987 637.107 286.949 637.126 286.911C640.122 282.672 642.967 278.621 645.586 274.702C645.643 274.626 645.624 274.513 645.568 274.438C645.492 274.362 645.398 274.344 645.304 274.4L516.158 343.458C516.045 343.514 515.932 343.458 515.856 343.363C515.8 343.269 515.837 343.137 515.932 343.062L573.985 308.976C573.985 308.976 574.079 308.901 574.079 308.844C574.079 308.787 574.079 308.731 574.061 308.674L572.176 305.584C572.12 305.49 571.988 305.452 571.875 305.509L496.26 351.654C496.166 351.711 496.128 351.842 496.185 351.956C497.598 354.424 498.955 356.949 500.255 359.53C500.274 359.587 500.33 359.624 500.387 359.643C500.443 359.662 500.5 359.643 500.556 359.643ZM442.503 659.012L445.932 657.862C446.045 657.825 446.102 657.693 446.064 657.58L433.251 619.706C433.213 619.593 433.27 619.462 433.383 619.424C433.496 619.386 433.628 619.424 433.666 619.556L464.699 703.65C464.699 703.65 464.774 703.763 464.831 703.781C467.488 704.611 470.201 705.364 472.952 706.024C473.027 706.024 473.122 706.024 473.159 705.948C473.216 705.892 473.235 705.798 473.197 705.722L421.512 565.629C421.512 565.629 421.456 565.535 421.399 565.497C421.343 565.459 421.286 565.478 421.23 565.497C418.177 566.703 415.087 567.777 411.997 568.757C411.94 568.757 411.903 568.813 411.865 568.87C411.846 568.926 411.827 568.983 411.865 569.039L442.239 658.861C442.239 658.861 442.295 658.955 442.352 658.993C442.409 659.012 442.465 659.031 442.522 658.993L442.503 659.012ZM512.917 394.502L586.007 375.791C586.007 375.791 586.139 375.716 586.157 375.659C587.137 373.003 588.136 370.402 589.172 367.859C589.21 367.783 589.172 367.689 589.135 367.632C589.097 367.576 589.003 367.538 588.908 367.557L535.226 381.576C535.113 381.613 535 381.538 534.963 381.425C534.925 381.312 535 381.199 535.113 381.161L591.151 362.941C591.151 362.941 591.264 362.884 591.283 362.828C591.923 361.339 592.583 359.851 593.242 358.381C593.28 358.305 593.261 358.211 593.205 358.155C593.148 358.098 593.054 358.06 592.978 358.098L510.392 384.515C510.279 384.553 510.222 384.666 510.241 384.779C511.165 387.963 511.956 391.148 512.653 394.351C512.653 394.408 512.71 394.464 512.747 394.483C512.804 394.521 512.86 394.521 512.917 394.502ZM451.396 580.42L523.582 704.724C523.582 704.724 523.732 704.855 523.846 704.818C526.031 704.121 528.217 703.348 530.384 702.444C530.44 702.425 530.478 702.368 530.516 702.312C530.553 702.255 530.516 702.18 530.516 702.123L444.613 554.191C444.613 554.191 444.538 554.097 444.481 554.097C444.425 554.097 444.368 554.097 444.312 554.116C441.316 555.925 438.225 557.64 435.06 559.26C435.003 559.279 434.966 559.335 434.947 559.392C434.947 559.448 434.947 559.505 434.947 559.561L480.263 642.77C480.319 642.883 480.451 642.92 480.564 642.864L483.73 641.13C483.73 641.13 483.824 641.055 483.843 640.998C483.843 640.942 483.843 640.885 483.843 640.829L451.057 580.627C451.001 580.514 451.038 580.382 451.133 580.326C451.227 580.269 451.377 580.307 451.434 580.401L451.396 580.42ZM387.558 574.598L401.52 665.023C401.52 665.023 401.577 665.155 401.652 665.192C402.99 665.739 404.29 666.323 405.572 667.001C405.647 667.039 405.741 667.039 405.798 667.001C405.873 666.945 405.892 666.869 405.892 666.794L405.76 665.965L403.103 648.743C403.103 648.63 403.16 648.517 403.292 648.498C403.423 648.479 403.518 648.554 403.537 648.667L407.06 667.755C407.06 667.755 407.117 667.868 407.173 667.906C409.905 669.507 412.487 671.448 414.861 673.747C414.936 673.803 415.03 673.822 415.125 673.784C415.219 673.747 415.257 673.652 415.238 673.558L396.866 572.977C396.866 572.977 396.829 572.864 396.772 572.827C396.716 572.789 396.659 572.789 396.603 572.789C393.663 573.392 390.705 573.919 387.765 574.353C387.709 574.353 387.652 574.39 387.615 574.447C387.577 574.485 387.558 574.56 387.577 574.617L387.558 574.598ZM399.825 572.337L422.115 664.194C422.115 664.194 422.172 664.307 422.209 664.325C422.266 664.363 422.322 664.363 422.379 664.344L425.884 663.477C425.997 663.44 426.072 663.327 426.053 663.214L419.798 637.211C419.779 637.098 419.835 636.985 419.948 636.947C420.061 636.91 420.174 636.985 420.212 637.098L434.589 689.65C434.589 689.65 434.645 689.744 434.683 689.782C437.34 691.459 440.166 693.098 443.106 694.662C443.181 694.699 443.275 694.699 443.351 694.643C443.426 694.586 443.445 694.492 443.426 694.417L409.34 569.849C409.34 569.849 409.284 569.736 409.227 569.718C409.17 569.68 409.114 569.68 409.057 569.718C406.043 570.603 403.009 571.395 399.975 572.092C399.919 572.092 399.862 572.148 399.843 572.186C399.825 572.224 399.806 572.299 399.825 572.355V572.337ZM443.859 599.922L495.092 708.794C495.092 708.794 495.205 708.925 495.28 708.925C497.768 708.963 500.255 708.925 502.761 708.756C502.836 708.756 502.893 708.718 502.93 708.643C502.968 708.586 502.968 708.511 502.93 708.436L433.27 560.391C433.27 560.391 433.195 560.296 433.138 560.277C433.081 560.259 433.025 560.277 432.968 560.277C431.951 560.786 430.952 561.314 429.916 561.804C427.862 562.765 425.789 563.669 423.698 564.517C423.641 564.536 423.604 564.574 423.585 564.63C423.566 564.687 423.566 564.743 423.585 564.8L461.571 651.626C461.571 651.626 461.647 651.72 461.684 651.739C461.741 651.757 461.797 651.757 461.854 651.739L465.17 650.288C465.283 650.231 465.34 650.118 465.283 650.005L443.445 600.073C443.388 599.96 443.445 599.828 443.558 599.79C443.671 599.752 443.803 599.79 443.841 599.903L443.859 599.922ZM478.416 526.06L582.935 613.96C582.935 613.96 583.086 614.035 583.18 613.997C583.256 613.96 583.312 613.884 583.293 613.79C583.143 610.681 582.898 607.515 582.596 604.275C582.596 604.218 582.558 604.162 582.521 604.124L483.108 520.52C483.108 520.52 483.014 520.463 482.939 520.463C482.882 520.463 482.826 520.501 482.788 520.539C481.356 522.31 479.886 524.043 478.379 525.739C478.341 525.777 478.322 525.834 478.322 525.909C478.322 525.965 478.36 526.022 478.398 526.06H478.416ZM582.822 385.325C583.256 383.988 583.689 382.65 584.141 381.331C584.16 381.256 584.141 381.18 584.104 381.124C584.047 381.067 583.972 381.048 583.896 381.048L513.444 397.045C513.331 397.064 513.256 397.177 513.275 397.309C513.916 400.531 514.481 403.735 514.895 406.975C514.895 407.032 514.933 407.088 514.99 407.126C515.046 407.164 515.103 407.183 515.159 407.164L579.412 396.518C579.412 396.518 579.563 396.442 579.581 396.367C580.241 393.899 580.938 391.487 581.673 389.113C581.692 389.037 581.673 388.962 581.635 388.906C581.579 388.849 581.503 388.83 581.428 388.83L539.315 395.802C539.202 395.821 539.089 395.745 539.07 395.632C539.051 395.519 539.127 395.406 539.24 395.368L582.69 385.514C582.69 385.514 582.822 385.438 582.841 385.363L582.822 385.325ZM469.447 535.255L580.41 646.256C580.41 646.256 580.542 646.331 580.618 646.312C580.693 646.293 580.75 646.237 580.768 646.161C581.428 643.523 581.974 640.829 582.389 638.097C582.389 638.021 582.389 637.965 582.332 637.908L474.497 530.243C474.497 530.243 474.403 530.186 474.346 530.186C474.29 530.186 474.233 530.205 474.196 530.261C472.613 531.901 471.124 533.408 469.466 534.972C469.429 535.01 469.391 535.066 469.391 535.123C469.391 535.179 469.41 535.236 469.447 535.274V535.255ZM460.761 567.871L548.265 692.043C548.265 692.043 548.359 692.118 548.416 692.137C548.473 692.137 548.529 692.137 548.586 692.099C550.395 690.761 552.184 689.348 553.956 687.822C554.05 687.747 554.05 687.615 553.993 687.539L455.297 547.088C455.297 547.088 455.203 547.012 455.146 546.994C455.089 546.994 455.033 546.994 454.976 547.031C453.111 548.388 451.057 549.82 449.116 551.101C448.061 551.798 446.968 552.477 445.876 553.136C445.819 553.174 445.781 553.212 445.781 553.268C445.781 553.325 445.781 553.381 445.819 553.438L498.088 632.331C498.088 632.331 498.163 632.406 498.22 632.425C498.276 632.425 498.333 632.425 498.389 632.388L501.404 630.39C501.498 630.315 501.536 630.183 501.461 630.089L460.403 568.116C460.346 568.022 460.365 567.89 460.46 567.814C460.554 567.739 460.686 567.777 460.761 567.871Z" fill="url(#paint0_linear_22_3549)"/>
<g opacity="0.1" filter="url(#filter0_f_22_3549)">
<circle cx="380.5" cy="398.5" r="304.5" fill="url(#paint1_linear_22_3549)"/>
</g>
</g>
<defs>
<filter id="filter0_f_22_3549" x="-58.7159" y="-40.7159" width="878.432" height="878.432" filterUnits="userSpaceOnUse" color-interpolation-filters="sRGB">
<feFlood flood-opacity="0" result="BackgroundImageFix"/>
<feBlend mode="normal" in="SourceGraphic" in2="BackgroundImageFix" result="shape"/>
<feGaussianBlur stdDeviation="67.3579" result="effect1_foregroundBlur_22_3549"/>
</filter>
<linearGradient id="paint0_linear_22_3549" x1="195.855" y1="197.523" x2="620.036" y2="621.704" gradientUnits="userSpaceOnUse">
<stop stop-color="#FEBF3B"/>
<stop offset="0.23" stop-color="#FDBB3C"/>
<stop offset="0.44" stop-color="#FAAF3F"/>
<stop offset="0.64" stop-color="#F69C44"/>
<stop offset="0.85" stop-color="#EF824B"/>
<stop offset="1" stop-color="#EA6953"/>
</linearGradient>
<linearGradient id="paint1_linear_22_3549" x1="685" y1="703" x2="6.68565" y2="612.283" gradientUnits="userSpaceOnUse">
<stop stop-color="#E56A54"/>
<stop offset="0.510417" stop-color="#FFBF3F"/>
</linearGradient>
<clipPath id="clip0_22_3549">
<rect width="786" height="786" fill="white"/>
</clipPath>
</defs>
</svg>
